#define keyboardc_width 144
#define keyboardc_height 99
static char keyboardc_bits[] = {
  0x00, 0x00, 0x00, 0x00, 0x00, 0x00, 0x00, 0x00, 0x00, 0x00, 0x00, 0x00, 
  0x00, 0x00, 0x00, 0x00, 0x00, 0x00, 0x00, 0x00, 0x00, 0x00, 0x00, 0x00, 
  0x00, 0x00, 0x00, 0x00, 0x00, 0x00, 0x00, 0x00, 0x00, 0x00, 0x00, 0x00, 
  0xFC, 0xFF, 0xFF, 0xFF, 0xFF, 0xFF, 0xFF, 0xFF, 0xFF, 0xFF, 0xFF, 0xFF, 
  0xFF, 0xFF, 0xFF, 0xFF, 0xFF, 0x3F, 0x04, 0x00, 0x00, 0x00, 0x00, 0x00, 
  0x00, 0x00, 0x00, 0x00, 0x00, 0x00, 0x00, 0x00, 0x00, 0x00, 0x00, 0x20, 
  0x04, 0x00, 0x00, 0x00, 0x00, 0x00, 0x00, 0x00, 0x00, 0x00, 0x00, 0x00, 
  0x00, 0x00, 0x00, 0x00, 0x00, 0x20, 0x04, 0x00, 0x00, 0x00, 0x00, 0x00, 
  0x00, 0x00, 0x00, 0x00, 0x00, 0x00, 0x00, 0x00, 0x00, 0x00, 0x00, 0x20, 
  0x04, 0x00, 0x00, 0x00, 0x00, 0x00, 0x00, 0x00, 0x00, 0x00, 0x00, 0x00, 
  0x00, 0x00, 0x00, 0x00, 0x00, 0x20, 0x04, 0x00, 0x00, 0x00, 0x00, 0x00, 
  0x00, 0x00, 0x00, 0x00, 0x00, 0x00, 0x00, 0x00, 0x00, 0x00, 0x00, 0x20, 
  0x04, 0x00, 0x00, 0x00, 0x00, 0x00, 0x00, 0x00, 0x00, 0x00, 0x00, 0x00, 
  0x00, 0x00, 0x00, 0x00, 0x00, 0x20, 0x04, 0x00, 0x00, 0x00, 0x00, 0x00, 
  0x00, 0x00, 0x00, 0x00, 0x00, 0x00, 0x00, 0x00, 0x00, 0x00, 0x00, 0x20, 
  0x04, 0x00, 0x00, 0x00, 0x00, 0x00, 0x00, 0x00, 0x00, 0x00, 0x00, 0x00, 
  0x00, 0x00, 0x00, 0x00, 0x00, 0x20, 0x04, 0x00, 0x00, 0x00, 0x00, 0x00, 
  0x00, 0x00, 0x00, 0x00, 0x00, 0x00, 0x00, 0x00, 0x00, 0x00, 0x00, 0x20, 
  0x04, 0x00, 0x00, 0x00, 0x00, 0x00, 0x00, 0x00, 0x00, 0x00, 0x00, 0x00, 
  0x00, 0x00, 0x00, 0x00, 0x00, 0x20, 0x04, 0x00, 0x00, 0x00, 0x00, 0x00, 
  0x00, 0x00, 0x00, 0x00, 0x00, 0x00, 0x00, 0x00, 0x00, 0x00, 0x00, 0x20, 
  0x04, 0x00, 0x00, 0x00, 0x00, 0x00, 0x00, 0x00, 0x00, 0x00, 0x00, 0x00, 
  0x00, 0x00, 0x00, 0x00, 0x00, 0x20, 0x04, 0x00, 0x00, 0x00, 0x00, 0x00, 
  0x00, 0x00, 0x00, 0x00, 0x00, 0x00, 0x00, 0x00, 0x00, 0x00, 0x00, 0x20, 
  0x04, 0x00, 0x00, 0x00, 0x00, 0x00, 0x00, 0x00, 0x00, 0x00, 0x00, 0x00, 
  0x00, 0x00, 0x00, 0x00, 0x00, 0x20, 0x04, 0x00, 0x00, 0x00, 0x00, 0x00, 
  0x00, 0x00, 0x00, 0x00, 0x00, 0x00, 0x00, 0x00, 0x00, 0x00, 0x00, 0x20, 
  0x84, 0xFF, 0xFF, 0xFF, 0xFF, 0xFF, 0xFF, 0xFF, 0xFF, 0xFF, 0xFF, 0xFF, 
  0xFF, 0xFF, 0xFF, 0xFF, 0xFF, 0x21, 0x44, 0x00, 0x00, 0x00, 0x00, 0x00, 
  0x00, 0x00, 0x00, 0x00, 0x00, 0x00, 0x00, 0x00, 0x00, 0x00, 0x00, 0x22, 
  0x44, 0x00, 0x00, 0x00, 0x00, 0x00, 0x00, 0x00, 0x00, 0x00, 0x00, 0x00, 
  0x00, 0x00, 0x00, 0x00, 0x00, 0x22, 0x44, 0x00, 0x00, 0x00, 0x00, 0x00, 
  0x00, 0x00, 0x00, 0x00, 0x00, 0x00, 0x00, 0x00, 0x00, 0x00, 0x00, 0x22, 
  0x44, 0x00, 0x00, 0x00, 0x00, 0x00, 0x00, 0x00, 0x00, 0x00, 0x00, 0x00, 
  0x00, 0x00, 0x00, 0x00, 0x00, 0x22, 0x44, 0x00, 0x00, 0x00, 0x00, 0x00, 
  0x00, 0x00, 0x00, 0x00, 0x00, 0x00, 0x00, 0x00, 0x00, 0x00, 0x00, 0x22, 
  0x44, 0x00, 0x00, 0x00, 0x00, 0x00, 0x00, 0x00, 0x00, 0x00, 0x00, 0x00, 
  0x00, 0x00, 0x00, 0x00, 0x00, 0x22, 0x44, 0x00, 0x00, 0x00, 0x00, 0x00, 
  0x00, 0x00, 0x00, 0x00, 0x00, 0x00, 0x00, 0x00, 0x00, 0x00, 0x00, 0x22, 
  0x44, 0x00, 0x00, 0x00, 0x00, 0x00, 0x00, 0x00, 0x00, 0x00, 0x00, 0x00, 
  0x00, 0x00, 0x00, 0x00, 0x00, 0x22, 0x44, 0x00, 0x00, 0x00, 0x00, 0x00, 
  0x00, 0x00, 0x00, 0x00, 0x00, 0x00, 0x00, 0x00, 0x00, 0x00, 0x00, 0x22, 
  0x44, 0x00, 0x00, 0x00, 0x00, 0x00, 0x00, 0x00, 0x00, 0x00, 0x00, 0x00, 
  0x00, 0x00, 0x00, 0x00, 0x00, 0x22, 0x44, 0x00, 0x00, 0x00, 0x00, 0x00, 
  0x00, 0x00, 0x00, 0x00, 0x00, 0x00, 0x00, 0x00, 0x00, 0x00, 0x00, 0x22, 
  0x44, 0x00, 0x00, 0x00, 0x00, 0x00, 0x00, 0x00, 0x00, 0x00, 0x00, 0x00, 
  0x00, 0x00, 0x00, 0x00, 0x00, 0x22, 0x44, 0x00, 0x00, 0x00, 0x00, 0x00, 
  0x00, 0x00, 0x00, 0x00, 0x00, 0x00, 0x00, 0x00, 0x00, 0x00, 0x00, 0x22, 
  0x44, 0x00, 0x00, 0x00, 0x00, 0x00, 0x00, 0x00, 0x00, 0x00, 0x00, 0x00, 
  0x00, 0x00, 0x00, 0x00, 0x00, 0x22, 0x44, 0x00, 0x00, 0x00, 0x00, 0x00, 
  0x00, 0x00, 0x00, 0x00, 0x00, 0x00, 0x00, 0x00, 0x00, 0x00, 0x00, 0x22, 
  0x84, 0xFF, 0xFF, 0xFF, 0xFF, 0xFF, 0xFF, 0xFF, 0xFF, 0xFF, 0xFF, 0xFF, 
  0xFF, 0xFF, 0xFF, 0xFF, 0xFF, 0x21, 0x04, 0x00, 0x00, 0x00, 0x00, 0x00, 
  0x00, 0x00, 0x00, 0x00, 0x00, 0x00, 0x00, 0x00, 0x00, 0x00, 0x00, 0x20, 
  0x04, 0x00, 0x00, 0x00, 0x00, 0x00, 0x00, 0x00, 0x00, 0x00, 0x00, 0x00, 
  0x00, 0x00, 0x00, 0x00, 0x00, 0x20, 0x04, 0x00, 0x00, 0x00, 0x00, 0x00, 
  0x00, 0x00, 0x00, 0x00, 0x00, 0x00, 0x00, 0x00, 0x00, 0x00, 0x00, 0x20, 
  0x04, 0x00, 0x00, 0x00, 0x00, 0x00, 0x00, 0x00, 0x00, 0x00, 0x00, 0x00, 
  0x00, 0x00, 0x00, 0x00, 0x00, 0x20, 0x04, 0x00, 0x00, 0x00, 0x00, 0x00, 
  0x00, 0x00, 0x00, 0x00, 0x00, 0x00, 0x00, 0x00, 0x00, 0x00, 0x00, 0x20, 
  0x04, 0x00, 0x00, 0x00, 0x00, 0x00, 0x00, 0x00, 0x00, 0x00, 0x00, 0x00, 
  0x00, 0x00, 0x00, 0x00, 0x00, 0x20, 0x04, 0x00, 0x00, 0x00, 0x00, 0x00, 
  0x00, 0x00, 0x00, 0x00, 0x00, 0x00, 0x00, 0x00, 0x00, 0x80, 0xFF, 0x21, 
  0x04, 0x00, 0x0E, 0x04, 0xE1, 0x07, 0x1F, 0xF8, 0x43, 0x10, 0x82, 0xC0, 
  0x01, 0x0E, 0xF8, 0x40, 0x00, 0x22, 0x04, 0x00, 0x11, 0x24, 0x21, 0x00, 
  0x21, 0x40, 0x80, 0x08, 0x82, 0x80, 0x00, 0x11, 0x08, 0x41, 0x08, 0x22, 
  0x04, 0x80, 0x20, 0x24, 0x21, 0x00, 0x21, 0x40, 0x80, 0x08, 0x82, 0x80, 
  0x80, 0x20, 0x08, 0x41, 0x0C, 0x22, 0x04, 0x80, 0x20, 0x24, 0x21, 0x00, 
  0x21, 0x40, 0x00, 0x05, 0x82, 0x80, 0x80, 0x20, 0x08, 0x41, 0x7A, 0x22, 
  0x04, 0x80, 0x20, 0x54, 0xE1, 0x07, 0x11, 0x40, 0x00, 0x05, 0x82, 0x80, 
  0x80, 0x20, 0x08, 0x41, 0x41, 0x22, 0x04, 0x80, 0x24, 0x54, 0x21, 0x00, 
  0x0F, 0x40, 0x00, 0x02, 0x82, 0x80, 0x80, 0x20, 0xF8, 0x40, 0x7A, 0x22, 
  0x04, 0x00, 0x19, 0x54, 0x21, 0x00, 0x11, 0x40, 0x00, 0x02, 0x82, 0x80, 
  0x80, 0x20, 0x08, 0x40, 0x0C, 0x22, 0x04, 0x00, 0x1E, 0x88, 0x20, 0x00, 
  0x21, 0x40, 0x00, 0x02, 0x44, 0x80, 0x00, 0x11, 0x08, 0x40, 0x08, 0x22, 
  0x04, 0x00, 0x30, 0x88, 0xE0, 0x07, 0x41, 0x40, 0x00, 0x02, 0x38, 0xC0, 
  0x01, 0x0E, 0x08, 0x40, 0x00, 0x22, 0x04, 0x00, 0x00, 0x00, 0x00, 0x00, 
  0x00, 0x00, 0x00, 0x00, 0x00, 0x00, 0x00, 0x00, 0x00, 0x80, 0xFF, 0x21, 
  0x04, 0x00, 0x00, 0x00, 0x00, 0x00, 0x00, 0x00, 0x00, 0x00, 0x00, 0x00, 
  0x00, 0x00, 0x00, 0x00, 0x00, 0x20, 0x04, 0x00, 0x00, 0x00, 0x00, 0x00, 
  0x00, 0x00, 0x00, 0x00, 0x00, 0x00, 0x00, 0x00, 0x00, 0x00, 0x00, 0x20, 
  0x04, 0x00, 0x00, 0x00, 0x00, 0x00, 0x00, 0x00, 0x00, 0x00, 0x00, 0x00, 
  0x00, 0x00, 0x00, 0x00, 0x00, 0x20, 0x84, 0xFF, 0x0F, 0x00, 0x00, 0x00, 
  0x00, 0x00, 0x00, 0x00, 0x00, 0x00, 0x00, 0x00, 0x00, 0x80, 0xFF, 0x21, 
  0x44, 0x00, 0x10, 0x20, 0xC0, 0x07, 0x1F, 0xF0, 0x03, 0x0F, 0x82, 0xC0, 
  0x01, 0x21, 0x08, 0x40, 0x00, 0x22, 0x44, 0x78, 0x10, 0x20, 0x20, 0x08, 
  0x21, 0x10, 0x80, 0x10, 0x82, 0x00, 0x01, 0x11, 0x08, 0x40, 0x00, 0x22, 
  0x44, 0x48, 0x10, 0x50, 0x20, 0x00, 0x41, 0x10, 0x40, 0x00, 0x82, 0x00, 
  0x01, 0x09, 0x08, 0x40, 0x00, 0x22, 0x44, 0x48, 0x10, 0x50, 0x20, 0x00, 
  0x41, 0x10, 0x40, 0x00, 0x82, 0x00, 0x01, 0x05, 0x08, 0x40, 0x00, 0x22, 
  0x44, 0xCE, 0x11, 0x88, 0xC0, 0x07, 0x41, 0xF0, 0x41, 0x00, 0xFE, 0x00, 
  0x01, 0x03, 0x08, 0x40, 0x00, 0x22, 0x44, 0x84, 0x10, 0x88, 0x00, 0x08, 
  0x41, 0x10, 0x40, 0x1C, 0x82, 0x00, 0x01, 0x05, 0x08, 0x40, 0x00, 0x22, 
  0x44, 0x48, 0x10, 0xF8, 0x00, 0x08, 0x41, 0x10, 0x40, 0x10, 0x82, 0x00, 
  0x01, 0x09, 0x08, 0x40, 0x00, 0x22, 0x44, 0x30, 0x10, 0x04, 0x21, 0x08, 
  0x21, 0x10, 0x80, 0x10, 0x82, 0x00, 0x01, 0x11, 0x08, 0x40, 0x00, 0x22, 
  0x44, 0x00, 0x10, 0x04, 0xC1, 0x07, 0x1F, 0x10, 0x00, 0x1F, 0x82, 0xE0, 
  0x00, 0x21, 0xF8, 0x41, 0x00, 0x22, 0x84, 0xFF, 0x0F, 0x00, 0x00, 0x00, 
  0x00, 0x00, 0x00, 0x00, 0x00, 0x00, 0x00, 0x00, 0x00, 0x40, 0x00, 0x22, 
  0x04, 0x00, 0x00, 0x00, 0x00, 0x00, 0x00, 0x00, 0x00, 0x00, 0x00, 0x00, 
  0x00, 0x00, 0x00, 0x40, 0x00, 0x22, 0x04, 0x00, 0x00, 0x00, 0x00, 0x00, 
  0x00, 0x00, 0x00, 0x00, 0x00, 0x00, 0x00, 0x00, 0x00, 0x40, 0x00, 0x22, 
  0x04, 0x00, 0x00, 0x00, 0x00, 0x00, 0x00, 0x00, 0x00, 0x00, 0x00, 0x00, 
  0x00, 0x00, 0x00, 0x40, 0x00, 0x22, 0x84, 0xFF, 0x0F, 0x00, 0x00, 0x00, 
  0x00, 0x00, 0x00, 0x00, 0x00, 0x00, 0x00, 0x00, 0x00, 0x40, 0x00, 0x22, 
  0x44, 0x00, 0x10, 0xFC, 0x21, 0x08, 0x3C, 0x08, 0x82, 0x07, 0x86, 0x30, 
  0x06, 0x00, 0xC0, 0x3F, 0x00, 0x22, 0x44, 0x22, 0x13, 0x00, 0x21, 0x08, 
  0x42, 0x08, 0x82, 0x08, 0x86, 0x30, 0x06, 0x00, 0x20, 0x00, 0x00, 0x22, 
  0x44, 0x53, 0x14, 0x80, 0x40, 0x04, 0x01, 0x08, 0x82, 0x08, 0x8A, 0x50, 
  0x05, 0x00, 0x20, 0x00, 0x00, 0x22, 0x44, 0x42, 0x14, 0x40, 0x80, 0x02, 
  0x01, 0x10, 0x81, 0x08, 0x8A, 0x50, 0x05, 0x00, 0x20, 0x00, 0x00, 0x22, 
  0x44, 0x42, 0x12, 0x20, 0x00, 0x01, 0x01, 0x10, 0x81, 0x0F, 0x92, 0x50, 
  0x05, 0x00, 0x20, 0x00, 0x00, 0x22, 0x44, 0x22, 0x14, 0x10, 0x80, 0x02, 
  0x01, 0xA0, 0x80, 0x10, 0xA2, 0x90, 0x04, 0x00, 0x20, 0x00, 0x70, 0x22, 
  0x44, 0x12, 0x14, 0x08, 0x40, 0x04, 0x01, 0xA0, 0x80, 0x10, 0xA2, 0x90, 
  0x04, 0x00, 0x20, 0x00, 0x38, 0x22, 0x44, 0x77, 0x13, 0x04, 0x20, 0x08, 
  0x42, 0x40, 0x80, 0x10, 0xC2, 0x90, 0x04, 0x00, 0x20, 0x00, 0x1C, 0x22, 
  0x44, 0x00, 0x10, 0xFC, 0x21, 0x08, 0x3C, 0x40, 0x80, 0x0F, 0xC2, 0x10, 
  0x04, 0x00, 0x20, 0x00, 0x0E, 0x22, 0x84, 0xFF, 0x0F, 0x00, 0x00, 0x00, 
  0x00, 0x00, 0x00, 0x00, 0x00, 0x00, 0x00, 0x00, 0x20, 0x06, 0x07, 0x22, 
  0x04, 0x00, 0x00, 0x00, 0x00, 0x00, 0x00, 0x00, 0x00, 0x00, 0x00, 0x00, 
  0x00, 0x00, 0x20, 0x8E, 0x03, 0x22, 0x04, 0x00, 0x00, 0x00, 0x00, 0x00, 
  0x00, 0x00, 0x00, 0x00, 0x00, 0x00, 0x00, 0x00, 0x20, 0xDC, 0x03, 0x22, 
  0x04, 0x00, 0x00, 0x00, 0x00, 0x00, 0x00, 0x00, 0x00, 0x00, 0x00, 0x00, 
  0x00, 0x00, 0x20, 0xF8, 0x01, 0x22, 0x04, 0x00, 0x00, 0x00, 0x00, 0x00, 
  0x00, 0x00, 0x00, 0x00, 0x00, 0x00, 0x00, 0x00, 0x20, 0xF0, 0x00, 0x22, 
  0x04, 0x00, 0x00, 0xFC, 0xFF, 0xFF, 0xFF, 0xFF, 0xFF, 0xFF, 0xFF, 0xFF, 
  0x07, 0x00, 0x20, 0x60, 0x00, 0x22, 0x04, 0x00, 0x00, 0x02, 0x00, 0x00, 
  0x00, 0x00, 0x00, 0x00, 0x00, 0x00, 0x08, 0x00, 0x20, 0x00, 0x00, 0x22, 
  0x04, 0x00, 0x00, 0x02, 0x00, 0x00, 0x00, 0x00, 0x00, 0x00, 0x00, 0x00, 
  0x08, 0x00, 0x20, 0x00, 0x00, 0x22, 0x04, 0x00, 0x00, 0x02, 0x00, 0x00, 
  0x00, 0x00, 0x00, 0x00, 0x00, 0x00, 0x08, 0x00, 0x20, 0x00, 0x00, 0x22, 
  0x04, 0x00, 0x00, 0x02, 0x00, 0x00, 0x00, 0x00, 0x00, 0x00, 0x00, 0x00, 
  0x08, 0x00, 0x20, 0x00, 0x00, 0x22, 0x04, 0x00, 0x00, 0x02, 0x00, 0x00, 
  0x00, 0x00, 0x00, 0x00, 0x00, 0x00, 0x08, 0x00, 0x20, 0x00, 0x00, 0x22, 
  0x04, 0x00, 0x00, 0x02, 0x00, 0x00, 0x00, 0x00, 0x00, 0x00, 0x00, 0x00, 
  0x08, 0x00, 0x20, 0x00, 0x00, 0x22, 0x04, 0x00, 0x00, 0xFC, 0xFF, 0xFF, 
  0xFF, 0xFF, 0xFF, 0xFF, 0xFF, 0xFF, 0x07, 0x00, 0xC0, 0xFF, 0xFF, 0x21, 
  0x04, 0x00, 0x00, 0x00, 0x00, 0x00, 0x00, 0x00, 0x00, 0x00, 0x00, 0x00, 
  0x00, 0x00, 0x00, 0x00, 0x00, 0x20, 0x04, 0x00, 0x00, 0x00, 0x00, 0x00, 
  0x00, 0x00, 0x00, 0x00, 0x00, 0x00, 0x00, 0x00, 0x00, 0x00, 0x00, 0x20, 
  0x04, 0x00, 0x00, 0x00, 0x00, 0x00, 0x00, 0x00, 0x00, 0x00, 0x00, 0x00, 
  0x00, 0x00, 0x00, 0x00, 0x00, 0x20, 0x04, 0x00, 0x00, 0x00, 0x00, 0x00, 
  0x00, 0x00, 0x00, 0x00, 0x00, 0x00, 0x00, 0x00, 0x00, 0x00, 0x00, 0x20, 
  0xFC, 0xFF, 0xFF, 0xFF, 0xFF, 0xFF, 0xFF, 0xFF, 0xFF, 0xFF, 0xFF, 0xFF, 
  0xFF, 0xFF, 0xFF, 0xFF, 0xFF, 0x3F, 0x00, 0x00, 0x00, 0x00, 0x00, 0x00, 
  0x00, 0x00, 0x00, 0x00, 0x00, 0x00, 0x00, 0x00, 0x00, 0x00, 0x00, 0x00, 
  0x00, 0x00, 0x00, 0x00, 0x00, 0x00, 0x00, 0x00, 0x00, 0x00, 0x00, 0x00, 
  0x00, 0x00, 0x00, 0x00, 0x00, 0x00, };
