#define large_icons_width 24
#define large_icons_height 616
static char large_icons_bits[] = {
  0x00, 0x00, 0x00, 0x00, 0x00, 0x00, 0x00, 0x00, 0x00, 0xFC, 0xFF, 0x3F, 
  0x02, 0x00, 0x40, 0x01, 0x00, 0x80, 0x01, 0x00, 0x87, 0x01, 0x80, 0x83, 
  0x01, 0xC0, 0x81, 0x01, 0xE0, 0x80, 0x61, 0x70, 0x80, 0xE1, 0x38, 0x80, 
  0xC1, 0x3D, 0x80, 0x81, 0x1F, 0x80, 0x01, 0x0F, 0x80, 0x01, 0x06, 0x80, 
  0x01, 0x00, 0x80, 0x02, 0x00, 0x40, 0xFC, 0xFF, 0x3F, 0x00, 0x00, 0x00, 
  0x00, 0x00, 0x00, 0x00, 0x00, 0x00, 0x00, 0x00, 0x00, 0x00, 0x00, 0x00, 
  0x00, 0x00, 0x00, 0xFC, 0xFF, 0x3F, 0x02, 0x00, 0x40, 0xF9, 0xFF, 0x9F, 
  0xFD, 0xFF, 0xB8, 0xFD, 0x7F, 0xBC, 0xFD, 0x3F, 0xBE, 0xFD, 0x1F, 0xBF, 
  0x9D, 0x8F, 0xBF, 0x1D, 0xC7, 0xBF, 0x3D, 0xC2, 0xBF, 0x7D, 0xE0, 0xBF, 
  0xFD, 0xF0, 0xBF, 0xFD, 0xF9, 0xBF, 0xF9, 0xFF, 0x9F, 0x02, 0x00, 0x40, 
  0xFC, 0xFF, 0x3F, 0x00, 0x00, 0x00, 0x00, 0x00, 0x00, 0x00, 0x00, 0x00, 
  0x00, 0x00, 0x00, 0x00, 0x00, 0x00, 0x00, 0x00, 0x00, 0xFC, 0xFF, 0x3F, 
  0x02, 0x00, 0x40, 0x01, 0x00, 0x80, 0x81, 0x01, 0x83, 0x01, 0x83, 0x81, 
  0x01, 0xC6, 0x80, 0x01, 0x6C, 0x80, 0x01, 0x38, 0x80, 0x01, 0x38, 0x80, 
  0x01, 0x6C, 0x80, 0x01, 0xC6, 0x80, 0x01, 0x83, 0x81, 0x81, 0x01, 0x83, 
  0x01, 0x00, 0x80, 0x02, 0x00, 0x40, 0xFC, 0xFF, 0x3F, 0x00, 0x00, 0x00, 
  0x00, 0x00, 0x00, 0x00, 0x00, 0x00, 0x00, 0x00, 0x00, 0x00, 0x00, 0x00, 
  0x00, 0x00, 0x00, 0xFC, 0xFF, 0x3F, 0x02, 0x00, 0x40, 0xF9, 0xFF, 0x9F, 
  0x7D, 0xFE, 0xBC, 0xFD, 0x7C, 0xBE, 0xFD, 0x39, 0xBF, 0xFD, 0x93, 0xBF, 
  0xFD, 0xC7, 0xBF, 0xFD, 0xC7, 0xBF, 0xFD, 0x93, 0xBF, 0xFD, 0x39, 0xBF, 
  0xFD, 0x7C, 0xBE, 0x7D, 0xFE, 0xBC, 0xF9, 0xFF, 0x9F, 0x02, 0x00, 0x40, 
  0xFC, 0xFF, 0x3F, 0x00, 0x00, 0x00, 0x00, 0x00, 0x00, 0x00, 0x00, 0x00, 
  0x00, 0x18, 0x00, 0x00, 0x3C, 0x00, 0x00, 0x3C, 0x00, 0x80, 0xBD, 0x01, 
  0xC0, 0xBD, 0x03, 0xE0, 0xBD, 0x07, 0xF0, 0x3C, 0x0F, 0x78, 0x3C, 0x1E, 
  0x38, 0x3C, 0x1C, 0x1C, 0x3C, 0x38, 0x1C, 0x18, 0x38, 0x1C, 0x00, 0x38, 
  0x1C, 0x00, 0x38, 0x1C, 0x00, 0x38, 0x1C, 0x00, 0x38, 0x38, 0x00, 0x1C, 
  0x38, 0x00, 0x1C, 0x70, 0x00, 0x0E, 0xE0, 0x81, 0x07, 0xC0, 0xFF, 0x03, 
  0x80, 0xFF, 0x01, 0x00, 0x7E, 0x00, 0x00, 0x00, 0x00, 0xE0, 0xFF, 0x03, 
  0x30, 0x00, 0x06, 0xE0, 0xFF, 0x03, 0x40, 0x00, 0x01, 0x40, 0x00, 0x01, 
  0x40, 0x55, 0x01, 0x80, 0xAA, 0x00, 0x00, 0x55, 0x00, 0x00, 0x2A, 0x00, 
  0x00, 0x14, 0x00, 0x00, 0x22, 0x00, 0x00, 0x49, 0x00, 0x80, 0x80, 0x00, 
  0x40, 0x08, 0x01, 0x40, 0x14, 0x01, 0x40, 0x2A, 0x01, 0xE0, 0xFF, 0x03, 
  0x30, 0x00, 0x06, 0xE0, 0xFF, 0x03, 0x00, 0x00, 0x00, 0x00, 0x00, 0x00, 
  0x00, 0x00, 0x00, 0x00, 0x00, 0x00, 0x00, 0x00, 0x00, 0x08, 0x00, 0x08, 
  0x1C, 0x00, 0x1C, 0xF4, 0x80, 0x17, 0x14, 0x41, 0x14, 0x94, 0x22, 0x14, 
  0x14, 0x15, 0x16, 0x94, 0x0A, 0x15, 0x14, 0xA5, 0x16, 0x94, 0x0A, 0x15, 
  0x14, 0x15, 0x16, 0x94, 0x22, 0x14, 0x14, 0x41, 0x14, 0xF4, 0x80, 0x17, 
  0x1C, 0x00, 0x1C, 0x08, 0x00, 0x08, 0x00, 0x00, 0x00, 0x00, 0x00, 0x00, 
  0x00, 0x00, 0x00, 0x00, 0x00, 0x00, 0x00, 0x00, 0x00, 0xF0, 0x03, 0x00, 
  0x18, 0x06, 0x00, 0xCC, 0x0C, 0x00, 0xC6, 0x18, 0x00, 0x02, 0x10, 0x0F, 
  0xC2, 0xD0, 0x08, 0xC2, 0x10, 0x10, 0xC2, 0x10, 0x16, 0xC6, 0x98, 0x11, 
  0xCC, 0x0C, 0x28, 0x18, 0x26, 0x27, 0xF0, 0xA3, 0x20, 0x00, 0x20, 0x4C, 
  0x10, 0x26, 0x43, 0x30, 0xA8, 0x60, 0xE0, 0x20, 0x38, 0x10, 0x23, 0x46, 
  0xE0, 0x8C, 0x39, 0x00, 0xFF, 0x07, 0x00, 0x70, 0x00, 0x00, 0x00, 0x00, 
  0x00, 0x3C, 0x00, 0x00, 0x7E, 0x00, 0x00, 0x66, 0x00, 0x00, 0xC3, 0x00, 
  0x00, 0xC3, 0x00, 0x80, 0x81, 0x01, 0x80, 0x99, 0x01, 0xC0, 0x18, 0x03, 
  0xC0, 0x18, 0x03, 0x60, 0x18, 0x06, 0x60, 0x18, 0x06, 0x30, 0x18, 0x0C, 
  0x30, 0x18, 0x0C, 0x18, 0x18, 0x18, 0x18, 0x00, 0x18, 0x0C, 0x18, 0x30, 
  0x0C, 0x18, 0x30, 0x06, 0x00, 0x60, 0x06, 0x00, 0x60, 0xFE, 0xFF, 0x7F, 
  0xFC, 0xFF, 0x3F, 0x00, 0x00, 0x00, 0x00, 0x00, 0x00, 0x00, 0x00, 0x00, 
  0x00, 0x00, 0x00, 0x00, 0x00, 0x00, 0x00, 0x00, 0x00, 0xFC, 0xFF, 0x1F, 
  0x04, 0x00, 0x10, 0x74, 0x00, 0x70, 0x74, 0x00, 0x40, 0x34, 0x00, 0x40, 
  0x34, 0x00, 0x40, 0x14, 0x00, 0x40, 0x14, 0x00, 0x70, 0x04, 0x00, 0x10, 
  0xFC, 0xFF, 0x1F, 0x00, 0x00, 0x00, 0x00, 0x00, 0x00, 0x00, 0x00, 0x00, 
  0x00, 0x00, 0x00, 0x00, 0x00, 0x00, 0x00, 0x00, 0x00, 0x00, 0x00, 0x00, 
  0x00, 0x00, 0x00, 0x00, 0xFF, 0x00, 0xE0, 0xA8, 0x07, 0x18, 0x50, 0x1F, 
  0x06, 0xA8, 0x7E, 0x02, 0x50, 0x7F, 0x02, 0xA8, 0x7E, 0x02, 0x50, 0x7F, 
  0x02, 0xFF, 0x7E, 0xE2, 0x00, 0x7F, 0x1C, 0x00, 0x38, 0x00, 0x00, 0x00, 
  0x00, 0xC0, 0x07, 0x00, 0x00, 0x07, 0x00, 0x80, 0x07, 0x00, 0xC0, 0x05, 
  0x00, 0xE0, 0x04, 0x00, 0x70, 0x00, 0x00, 0x3C, 0x00, 0x00, 0x14, 0x00, 
  0x00, 0x1C, 0x00, 0x00, 0x00, 0x00, 0x00, 0x00, 0x00, 0x00, 0x00, 0x06, 
  0xFC, 0x1F, 0x09, 0x04, 0x10, 0x09, 0xF4, 0x17, 0x09, 0x14, 0x14, 0x2F, 
  0x16, 0x34, 0x0F, 0x16, 0x34, 0x2F, 0xF6, 0x37, 0x0F, 0x86, 0x30, 0x2F, 
  0xFE, 0x3F, 0x0F, 0xB2, 0x20, 0x2F, 0x82, 0x20, 0x0F, 0xC2, 0x21, 0x2F, 
  0xA2, 0x22, 0x0F, 0xC6, 0x31, 0x06, 0x04, 0x10, 0x0F, 0xFC, 0x9F, 0x1F, 
  0x04, 0x90, 0x1F, 0xFC, 0x1F, 0x0F, 0x00, 0x00, 0x06, 0x00, 0x00, 0x00, 
  0xE0, 0x1F, 0x00, 0x10, 0x20, 0x00, 0xC0, 0x0F, 0x00, 0x20, 0x10, 0x00, 
  0x80, 0x07, 0x00, 0x40, 0x08, 0x00, 0x00, 0x03, 0x00, 0x00, 0x03, 0x00, 
  0x00, 0x00, 0x00, 0x30, 0x60, 0x00, 0x76, 0x70, 0x07, 0xE2, 0x38, 0xFC, 
  0xC2, 0x1D, 0x84, 0x82, 0x0F, 0xA4, 0x02, 0x07, 0x84, 0x82, 0x0F, 0xA4, 
  0xC2, 0x1D, 0x84, 0xE2, 0x38, 0xFC, 0x76, 0x70, 0x07, 0x30, 0x60, 0x00, 
  0x00, 0x00, 0x00, 0x00, 0x00, 0x00, 0x00, 0x00, 0x00, 0x00, 0x00, 0x00, 
  0x00, 0x00, 0x00, 0x00, 0x3C, 0x00, 0x00, 0xE7, 0x00, 0x80, 0x81, 0x01, 
  0xC0, 0x00, 0x03, 0x60, 0x04, 0x06, 0x20, 0x0C, 0x04, 0x30, 0x3C, 0x0C, 
  0x10, 0x7C, 0x08, 0x10, 0x7C, 0x08, 0x30, 0x3C, 0x0C, 0x20, 0x0C, 0x04, 
  0x60, 0x04, 0x06, 0xC0, 0x00, 0x03, 0x80, 0x81, 0x01, 0x00, 0xE7, 0x00, 
  0x00, 0x3C, 0x00, 0x00, 0x00, 0x00, 0x00, 0x00, 0x00, 0x00, 0x00, 0x00, 
  0x00, 0x00, 0x00, 0x00, 0x00, 0x00, 0x78, 0xFC, 0x07, 0xFC, 0x00, 0x04, 
  0xDE, 0xF5, 0x05, 0x8E, 0x07, 0x05, 0x00, 0x07, 0x0D, 0x84, 0x07, 0x0D, 
  0x0E, 0xF0, 0x0D, 0x84, 0x21, 0x0C, 0x80, 0xFF, 0x0F, 0x80, 0x2C, 0x08, 
  0x80, 0x20, 0x08, 0x80, 0x70, 0x08, 0x80, 0xA8, 0x08, 0x80, 0x71, 0x0C, 
  0x00, 0x01, 0x04, 0x00, 0xFF, 0x07, 0x00, 0x01, 0x04, 0x00, 0xFF, 0x07, 
  0x00, 0x00, 0x00, 0x00, 0x00, 0x00, 0x00, 0x00, 0x00, 0x00, 0x00, 0x00, 
  0x78, 0x00, 0x00, 0xFC, 0x00, 0x00, 0xDE, 0x05, 0x00, 0x8E, 0x07, 0x00, 
  0x00, 0x07, 0x00, 0x84, 0xF7, 0x0F, 0x0E, 0x00, 0x10, 0x84, 0x00, 0x3E, 
  0x80, 0x00, 0x20, 0x80, 0x36, 0x3C, 0x80, 0x52, 0x20, 0x80, 0x56, 0x3C, 
  0x80, 0x54, 0x20, 0x80, 0x36, 0x3C, 0x80, 0x00, 0x20, 0x80, 0xFF, 0x3F, 
  0x00, 0x00, 0x00, 0x00, 0x00, 0x00, 0x00, 0x00, 0x00, 0x00, 0x00, 0x00, 
  0x00, 0x00, 0x00, 0x00, 0x00, 0x00, 0x3C, 0x00, 0x00, 0x7E, 0x00, 0x00, 
  0xEF, 0x02, 0x00, 0xC7, 0x03, 0x00, 0x80, 0x03, 0x00, 0xC2, 0xFB, 0x07, 
  0x07, 0x00, 0x04, 0x22, 0x00, 0xFC, 0x20, 0x00, 0x84, 0xA0, 0xDA, 0xA4, 
  0xA0, 0x4A, 0x85, 0xA0, 0xDA, 0xA4, 0xA0, 0x52, 0x85, 0xA0, 0xDB, 0xFC, 
  0x20, 0x00, 0x04, 0xE0, 0xFF, 0x07, 0x00, 0x00, 0x00, 0x00, 0x00, 0x00, 
  0x00, 0x00, 0x00, 0x00, 0x00, 0x00, 0x00, 0x00, 0x00, 0x00, 0x00, 0x00, 
  0x78, 0x00, 0x00, 0xFC, 0x00, 0x00, 0xDE, 0x05, 0x00, 0x8E, 0x07, 0x00, 
  0x00, 0x07, 0x00, 0x84, 0x17, 0x00, 0x0E, 0x30, 0x00, 0x04, 0x52, 0x00, 
  0x00, 0x94, 0x00, 0x00, 0x58, 0x00, 0x00, 0x30, 0x00, 0x00, 0x58, 0x00, 
  0x00, 0x94, 0x00, 0x00, 0x52, 0x00, 0x00, 0x30, 0x00, 0x00, 0x10, 0x00, 
  0x00, 0x00, 0x00, 0x00, 0x00, 0x00, 0x00, 0x00, 0x00, 0x00, 0x00, 0x00, 
  0x00, 0x00, 0x00, 0x00, 0x00, 0x00, 0x78, 0x00, 0x00, 0xFC, 0x00, 0x00, 
  0xDE, 0x05, 0x00, 0x8E, 0x07, 0x00, 0x00, 0x07, 0x00, 0x84, 0x07, 0x00, 
  0x0E, 0x00, 0x00, 0x04, 0xFE, 0x01, 0x00, 0x01, 0x02, 0x00, 0xFC, 0x00, 
  0x00, 0x02, 0x01, 0x00, 0x78, 0x00, 0x00, 0x84, 0x00, 0x00, 0x30, 0x00, 
  0x00, 0x30, 0x00, 0x00, 0x00, 0x00, 0x00, 0x00, 0x00, 0x00, 0x00, 0x00, 
  0x00, 0x00, 0x00, 0x00, 0x00, 0x00, 0x00, 0x00, 0x00, 0x00, 0xD8, 0x01, 
  0xF0, 0x78, 0x01, 0xF8, 0xE1, 0x01, 0xBC, 0x8B, 0x07, 0x1C, 0x0F, 0x06, 
  0x00, 0x0E, 0x00, 0x00, 0xEF, 0x07, 0x00, 0x00, 0x04, 0x00, 0x25, 0x05, 
  0x00, 0x25, 0x05, 0x00, 0x25, 0x05, 0x00, 0x25, 0x05, 0x00, 0x25, 0x05, 
  0x00, 0x25, 0x05, 0x00, 0x25, 0x05, 0x00, 0x25, 0x05, 0x00, 0x25, 0x05, 
  0x00, 0x01, 0x04, 0x00, 0xFE, 0x03, 0x00, 0x00, 0x00, 0x00, 0x00, 0x00, 
  0x00, 0x00, 0x00, 0x00, 0xFC, 0x03, 0x00, 0x04, 0x05, 0x00, 0x04, 0x09, 
  0xF8, 0x07, 0x11, 0x08, 0x0A, 0x1F, 0x08, 0x12, 0x10, 0x08, 0x22, 0x10, 
  0x08, 0xBE, 0x10, 0x08, 0xA0, 0x11, 0x08, 0xFF, 0x13, 0x08, 0xFF, 0x13, 
  0x08, 0xA0, 0x11, 0x08, 0xA0, 0x10, 0x08, 0x20, 0x10, 0x08, 0xE0, 0x1F, 
  0x08, 0x20, 0x00, 0x08, 0x20, 0x00, 0xF8, 0x3F, 0x00, 0x00, 0x00, 0x00, 
  0x00, 0x00, 0x00, 0x00, 0x00, 0x00, 0x00, 0x00, 0x00, 0x00, 0x00, 0x00, 
  0x00, 0x00, 0x00, 0x00, 0x00, 0x00, 0xE0, 0xFF, 0x03, 0x20, 0x16, 0x05, 
  0x20, 0x2A, 0x09, 0x20, 0x36, 0x09, 0x20, 0x3A, 0x09, 0x20, 0xFE, 0x09, 
  0x20, 0x00, 0x08, 0x20, 0x00, 0x08, 0xA0, 0xFF, 0x0B, 0xA0, 0x00, 0x0A, 
  0xA0, 0xFE, 0x0A, 0xA0, 0x00, 0x0A, 0xA0, 0xFE, 0x0A, 0xA0, 0x00, 0x0A, 
  0xE0, 0xFF, 0x0F, 0x00, 0x00, 0x00, 0x00, 0x00, 0x00, 0x00, 0x00, 0x00, 
  0x00, 0x00, 0x00, 0x48, 0x08, 0x40, 0x48, 0x7C, 0x27, 0xFC, 0x0A, 0x15, 
  0x28, 0x0E, 0x17, 0x28, 0x38, 0x08, 0x7E, 0x48, 0x74, 0x24, 0x48, 0x54, 
  0x24, 0x3E, 0x72, 0x00, 0x08, 0x01, 0x00, 0x00, 0x00, 0x70, 0x00, 0x00, 
  0x88, 0x10, 0x00, 0x04, 0x55, 0x00, 0x74, 0x39, 0x7E, 0x64, 0x55, 0x00, 
  0x54, 0x11, 0x00, 0xE4, 0x00, 0x7E, 0x08, 0x00, 0x00, 0xF0, 0x01, 0x00, 
  0x00, 0x00, 0x00, 0x00, 0x00, 0x00, 0x00, 0x00, 0x00, 0x00, 0xF0, 0x0F, 
  0x00, 0x10, 0x14, 0x00, 0x10, 0x24, 0xE0, 0x1F, 0x44, 0x20, 0x28, 0x7C, 
  0x20, 0x48, 0x40, 0x20, 0x88, 0x40, 0x20, 0xF8, 0x42, 0x20, 0x80, 0x46, 
  0x26, 0xEC, 0x4F, 0x0E, 0xEE, 0x4F, 0x1C, 0x87, 0x46, 0xB8, 0x83, 0x42, 
  0xF0, 0x81, 0x40, 0xE0, 0x80, 0x7F, 0xF0, 0x81, 0x00, 0xB8, 0x83, 0x00, 
  0x1C, 0xE7, 0x00, 0x0E, 0x0E, 0x00, 0x06, 0x0C, 0x00, 0x00, 0x00, 0x00, 
  0x00, 0x00, 0x00, 0x00, 0x00, 0x00, 0x00, 0x00, 0x00, 0x00, 0x00, 0x00, 
  0x8F, 0xFF, 0x03, 0x55, 0x55, 0x05, 0xDA, 0xAA, 0xC6, 0xDF, 0xFF, 0xC7, 
  0x50, 0x00, 0xC4, 0x50, 0x00, 0xC4, 0x70, 0x00, 0xCC, 0x50, 0x00, 0x04, 
  0x50, 0x00, 0xC4, 0x50, 0x00, 0xC4, 0x50, 0x00, 0x04, 0x50, 0x00, 0x04, 
  0x8F, 0xFF, 0x03, 0x00, 0x00, 0x00, 0x00, 0x00, 0x00, 0x00, 0x00, 0x00, 
  0x00, 0x00, 0x00, 0x00, 0x00, 0x00, 0x00, 0x00, 0x00, 0x00, 0x00, 0x00, 
  0x00, 0x00, 0x00, 0x00, 0x00, 0x00, 0x00, 0x10, 0x00, 0x00, 0x92, 0x00, 
  0x00, 0x54, 0x00, 0x00, 0x10, 0x00, 0x00, 0xC7, 0x01, 0x80, 0x45, 0x03, 
  0xF8, 0x44, 0x3E, 0xF8, 0x44, 0x3E, 0x80, 0x45, 0x03, 0x00, 0xC7, 0x01, 
  0x00, 0x10, 0x00, 0x00, 0x54, 0x00, 0x00, 0x92, 0x00, 0x00, 0x00, 0x00, 
  0x00, 0x00, 0x00, 0x00, 0x00, 0x00, 0x00, 0x00, 0x00, 0x00, 0x00, 0x00, 
  0x00, 0x00, 0x00, 0x00, 0x00, 0x00, 0x00, 0x00, 0x00, 0x00, 0x00, 0x00, 
  0x00, 0xC0, 0x00, 0x00, 0xE0, 0x01, 0x80, 0xF1, 0x03, 0x40, 0xC2, 0x00, 
  0x20, 0xDC, 0x02, 0x20, 0xC0, 0x04, 0x20, 0xC0, 0x04, 0x20, 0xC0, 0x04, 
  0xA0, 0xFF, 0x0F, 0xA0, 0x00, 0x08, 0xA0, 0x00, 0x08, 0x60, 0x00, 0x04, 
  0x60, 0x00, 0x04, 0x20, 0x00, 0x02, 0xE0, 0xFF, 0x03, 0x00, 0x00, 0x00, 
  0x00, 0x00, 0x00, 0x00, 0x00, 0x00, 0x00, 0x00, 0x00, 0x00, 0x00, 0x00, 
  0xFE, 0xFF, 0x1F, 0x02, 0x00, 0x20, 0x02, 0x00, 0x40, 0x02, 0x00, 0x80, 
  0x92, 0xF7, 0x84, 0x9A, 0x94, 0x8A, 0x92, 0x94, 0xA4, 0x92, 0x94, 0x90, 
  0x92, 0x94, 0x88, 0x92, 0x94, 0x84, 0x92, 0x94, 0x92, 0x92, 0x94, 0xA8, 
  0xBA, 0xF7, 0x90, 0x02, 0x00, 0x80, 0x02, 0x00, 0x80, 0x02, 0x00, 0x80, 
  0xFE, 0xFF, 0xFF, 0x48, 0x29, 0x25, 0x78, 0xEF, 0x3D, 0x00, 0x00, 0x00, 
  };
