#define large_font_width 256
#define large_font_height 96
static char large_font_bits[] = {
  0x00, 0x00, 0x80, 0x03, 0xE0, 0x38, 0x00, 0x63, 0x00, 0x03, 0x00, 0x0C, 
  0xE0, 0x01, 0x00, 0x07, 0x00, 0x06, 0xC0, 0x00, 0x80, 0x01, 0x00, 0x00, 
  0x00, 0x00, 0x00, 0x00, 0x00, 0x00, 0x00, 0x18, 0x00, 0x00, 0x80, 0x03, 
  0xE0, 0x38, 0x00, 0x63, 0x00, 0x03, 0x00, 0x0C, 0xF0, 0x07, 0x00, 0x07, 
  0x00, 0x07, 0xC0, 0x01, 0x80, 0x01, 0x00, 0x03, 0x00, 0x00, 0x00, 0x00, 
  0x00, 0x00, 0x00, 0x18, 0x00, 0x00, 0x80, 0x03, 0xE0, 0x38, 0x80, 0x31, 
  0xE0, 0x1F, 0x38, 0x0E, 0x38, 0x0E, 0x00, 0x07, 0x80, 0x03, 0x80, 0x03, 
  0x98, 0x19, 0x00, 0x03, 0x00, 0x00, 0x00, 0x00, 0x00, 0x00, 0x00, 0x1C, 
  0x00, 0x00, 0x80, 0x03, 0x70, 0x1C, 0x80, 0x31, 0xF8, 0x7F, 0x7C, 0x06, 
  0x18, 0x0C, 0x80, 0x03, 0x80, 0x03, 0x80, 0x03, 0xB0, 0x0D, 0x00, 0x03, 
  0x00, 0x00, 0x00, 0x00, 0x00, 0x00, 0x00, 0x0C, 0x00, 0x00, 0x80, 0x03, 
  0x70, 0x1C, 0xF0, 0xFF, 0x3C, 0x73, 0x6C, 0x06, 0x18, 0x0C, 0x80, 0x03, 
  0xC0, 0x01, 0x00, 0x07, 0xE0, 0x07, 0x00, 0x03, 0x00, 0x00, 0x00, 0x00, 
  0x00, 0x00, 0x00, 0x0C, 0x00, 0x00, 0x80, 0x03, 0x30, 0x0C, 0xF0, 0xFF, 
  0x3C, 0x63, 0x6C, 0x07, 0x38, 0x06, 0x80, 0x01, 0xC0, 0x01, 0x00, 0x07, 
  0xC0, 0x03, 0x00, 0x03, 0x00, 0x00, 0x00, 0x00, 0x00, 0x00, 0x00, 0x0E, 
  0x00, 0x00, 0x80, 0x03, 0x00, 0x00, 0xC0, 0x18, 0x78, 0x03, 0x7C, 0x03, 
  0xF0, 0x03, 0x00, 0x00, 0xE0, 0x00, 0x00, 0x0E, 0xE0, 0x07, 0x00, 0x03, 
  0x00, 0x00, 0x00, 0x00, 0x00, 0x00, 0x00, 0x06, 0x00, 0x00, 0x80, 0x03, 
  0x00, 0x00, 0xC0, 0x18, 0xF0, 0x1F, 0x38, 0x03, 0xF0, 0x31, 0x00, 0x00, 
  0xE0, 0x00, 0x00, 0x0E, 0xB0, 0x0D, 0xFC, 0xFF, 0x00, 0x00, 0xF0, 0x1F, 
  0x00, 0x00, 0x00, 0x06, 0x00, 0x00, 0x80, 0x03, 0x00, 0x00, 0x60, 0x0C, 
  0xC0, 0x7F, 0x80, 0x03, 0xB8, 0x33, 0x00, 0x00, 0xE0, 0x00, 0x00, 0x0E, 
  0x98, 0x19, 0xFC, 0xFF, 0x00, 0x00, 0xF0, 0x1F, 0x00, 0x00, 0x00, 0x03, 
  0x00, 0x00, 0x80, 0x03, 0x00, 0x00, 0x60, 0x0C, 0x00, 0xFB, 0x80, 0x39, 
  0x1C, 0x37, 0x00, 0x00, 0xE0, 0x00, 0x00, 0x0E, 0x80, 0x01, 0x00, 0x03, 
  0x00, 0x00, 0x00, 0x00, 0x00, 0x00, 0x00, 0x03, 0x00, 0x00, 0x00, 0x00, 
  0x00, 0x00, 0xFC, 0x3F, 0x0C, 0xE3, 0x80, 0x7D, 0x0C, 0x3E, 0x00, 0x00, 
  0xC0, 0x01, 0x00, 0x07, 0x80, 0x01, 0x00, 0x03, 0x00, 0x00, 0x00, 0x00, 
  0x00, 0x00, 0x80, 0x03, 0x00, 0x00, 0x00, 0x00, 0x00, 0x00, 0xFC, 0x3F, 
  0x1C, 0xF3, 0xC0, 0x6D, 0x0C, 0x3C, 0x00, 0x00, 0xC0, 0x01, 0x00, 0x07, 
  0x00, 0x00, 0x00, 0x03, 0x00, 0x07, 0x00, 0x00, 0x00, 0x00, 0x80, 0x01, 
  0x00, 0x00, 0x00, 0x00, 0x00, 0x00, 0x30, 0x06, 0xFC, 0x7F, 0xC0, 0x6C, 
  0x1C, 0x38, 0x00, 0x00, 0x80, 0x03, 0x80, 0x03, 0x00, 0x00, 0x00, 0x03, 
  0x00, 0x07, 0x00, 0x00, 0x00, 0x07, 0x80, 0x01, 0x00, 0x00, 0x80, 0x03, 
  0x00, 0x00, 0x30, 0x06, 0xF0, 0x3F, 0xC0, 0x7C, 0x3C, 0x7C, 0x00, 0x00, 
  0x80, 0x03, 0x80, 0x03, 0x00, 0x00, 0x00, 0x03, 0x00, 0x07, 0x00, 0x00, 
  0x00, 0x07, 0xC0, 0x01, 0x00, 0x00, 0x80, 0x03, 0x00, 0x00, 0x18, 0x03, 
  0x00, 0x03, 0xE0, 0x38, 0xF8, 0xEF, 0x00, 0x00, 0x00, 0x07, 0xC0, 0x01, 
  0x00, 0x00, 0x00, 0x03, 0xC0, 0x03, 0x00, 0x00, 0x00, 0x07, 0xC0, 0x00, 
  0x00, 0x00, 0x80, 0x03, 0x00, 0x00, 0x18, 0x03, 0x00, 0x03, 0x60, 0x00, 
  0xF0, 0xC7, 0x00, 0x00, 0x00, 0x06, 0xC0, 0x00, 0x00, 0x00, 0x00, 0x00, 
  0xC0, 0x03, 0x00, 0x00, 0x00, 0x07, 0xC0, 0x00, 0xC0, 0x1F, 0x80, 0x03, 
  0xE0, 0x1F, 0xE0, 0x1F, 0x00, 0x38, 0xF0, 0x7F, 0x80, 0x7F, 0xF8, 0xFF, 
  0xC0, 0x1F, 0xC0, 0x1F, 0x00, 0x00, 0x00, 0x00, 0x00, 0x00, 0x00, 0x00, 
  0x00, 0x00, 0xF0, 0x1F, 0xE0, 0x3F, 0xC0, 0x03, 0xF8, 0x3F, 0xF8, 0x3F, 
  0x00, 0x3C, 0xF0, 0x7F, 0xC0, 0x7F, 0xF8, 0xFF, 0xE0, 0x3F, 0xE0, 0x3F, 
  0x00, 0x00, 0x00, 0x00, 0x00, 0x00, 0x00, 0x00, 0x00, 0x00, 0xF8, 0x3F, 
  0xF0, 0x78, 0xF8, 0x03, 0x38, 0x7C, 0x38, 0x7C, 0x00, 0x3E, 0x70, 0x00, 
  0xE0, 0x73, 0x00, 0xE0, 0xF0, 0x78, 0xF0, 0x78, 0x00, 0x07, 0x00, 0x07, 
  0x00, 0x70, 0x00, 0x00, 0x38, 0x00, 0x38, 0x78, 0x70, 0x70, 0xF8, 0x03, 
  0x38, 0x70, 0x38, 0x70, 0x00, 0x3F, 0x70, 0x00, 0xF0, 0x00, 0x00, 0xE0, 
  0x70, 0x70, 0x78, 0xF0, 0x00, 0x07, 0x00, 0x07, 0x00, 0x7C, 0x00, 0x00, 
  0xF8, 0x00, 0x00, 0x70, 0x78, 0xF0, 0x80, 0x03, 0x00, 0x70, 0x00, 0x70, 
  0x80, 0x3B, 0x70, 0x00, 0xF0, 0x00, 0x00, 0x70, 0x70, 0x70, 0x38, 0xE0, 
  0x00, 0x07, 0x00, 0x07, 0x00, 0x1F, 0xFC, 0xFF, 0xE0, 0x03, 0x00, 0x70, 
  0x38, 0xE0, 0x80, 0x03, 0x00, 0x70, 0x00, 0x38, 0xC0, 0x39, 0x70, 0x00, 
  0x38, 0x00, 0x00, 0x78, 0xE0, 0x70, 0x38, 0xE0, 0x00, 0x07, 0x00, 0x07, 
  0xC0, 0x03, 0xFC, 0xFF, 0x00, 0x0F, 0x00, 0x78, 0x38, 0xE0, 0x80, 0x03, 
  0x00, 0x78, 0x00, 0x1C, 0xE0, 0x38, 0xF0, 0x0F, 0x38, 0x1F, 0x00, 0x3C, 
  0xE0, 0x3B, 0x78, 0xF0, 0x00, 0x00, 0x00, 0x00, 0xF0, 0x00, 0x00, 0x00, 
  0x00, 0x3C, 0x00, 0x3E, 0x38, 0xE0, 0x80, 0x03, 0x00, 0x3C, 0x80, 0x0F, 
  0x70, 0x38, 0xF0, 0x1F, 0xF8, 0x3F, 0x00, 0x1C, 0x80, 0x1F, 0xF0, 0xF8, 
  0x00, 0x00, 0x00, 0x00, 0x38, 0x00, 0x00, 0x00, 0x00, 0x70, 0x00, 0x1F, 
  0x38, 0xE0, 0x80, 0x03, 0x00, 0x1E, 0x80, 0x0F, 0x38, 0x38, 0x00, 0x3C, 
  0xF8, 0x78, 0x00, 0x0E, 0xE0, 0x1F, 0xE0, 0xFF, 0x00, 0x00, 0x00, 0x00, 
  0x38, 0x00, 0x00, 0x00, 0x00, 0x70, 0x80, 0x07, 0x38, 0xE0, 0x80, 0x03, 
  0x00, 0x0F, 0x00, 0x3C, 0x18, 0x38, 0x00, 0x78, 0x78, 0xF0, 0x00, 0x07, 
  0x70, 0x7C, 0xC0, 0xE7, 0x00, 0x00, 0x00, 0x00, 0xF0, 0x00, 0x00, 0x00, 
  0x00, 0x3C, 0x80, 0x03, 0x38, 0xE0, 0x80, 0x03, 0x80, 0x07, 0x00, 0x78, 
  0xF8, 0xFF, 0x00, 0x70, 0x38, 0xE0, 0x00, 0x07, 0x78, 0xF0, 0x00, 0xE0, 
  0x00, 0x07, 0x00, 0x07, 0xC0, 0x03, 0xFC, 0xFF, 0x00, 0x0F, 0x80, 0x03, 
  0x78, 0xF0, 0x80, 0x03, 0xC0, 0x03, 0x00, 0x70, 0xF8, 0xFF, 0x00, 0x70, 
  0x38, 0xE0, 0x80, 0x03, 0x38, 0xE0, 0x00, 0xF8, 0x00, 0x07, 0x00, 0x07, 
  0x00, 0x1F, 0xFC, 0xFF, 0xE0, 0x03, 0x00, 0x00, 0x70, 0x70, 0x80, 0x03, 
  0xE0, 0x01, 0x38, 0x78, 0x00, 0x38, 0x38, 0x78, 0x78, 0xF0, 0xC0, 0x03, 
  0x38, 0xE0, 0x00, 0x78, 0x00, 0x07, 0x80, 0x07, 0x00, 0x7C, 0x00, 0x00, 
  0xF8, 0x00, 0x00, 0x00, 0xF0, 0x78, 0x80, 0x03, 0xF0, 0x00, 0x38, 0x3C, 
  0x00, 0x38, 0x38, 0x3C, 0xF0, 0x78, 0xC0, 0x01, 0x78, 0xF0, 0x70, 0x3E, 
  0x00, 0x07, 0x80, 0x03, 0x00, 0x70, 0x00, 0x00, 0x38, 0x00, 0x80, 0x03, 
  0xE0, 0x3F, 0xF8, 0x3F, 0xF8, 0x7F, 0xF8, 0x1F, 0x00, 0x38, 0xF8, 0x1F, 
  0xE0, 0x3F, 0xE0, 0x00, 0xF0, 0x7F, 0xF0, 0x1F, 0x00, 0x00, 0x80, 0x01, 
  0x00, 0x00, 0x00, 0x00, 0x00, 0x00, 0x80, 0x03, 0xC0, 0x1F, 0xF8, 0x3F, 
  0xF8, 0x7F, 0xE0, 0x0F, 0x00, 0x38, 0xE0, 0x0F, 0xC0, 0x1F, 0xE0, 0x00, 
  0xE0, 0x3F, 0xF0, 0x0F, 0x00, 0x00, 0x00, 0x00, 0x00, 0x00, 0x00, 0x00, 
  0x00, 0x00, 0x80, 0x03, 0x80, 0x0F, 0x80, 0x03, 0xFC, 0x0F, 0x80, 0x3F, 
  0xFC, 0x07, 0xF8, 0xFF, 0xF8, 0xFF, 0xC0, 0x3F, 0x38, 0xE0, 0xF0, 0x1F, 
  0xC0, 0x1F, 0x38, 0x00, 0x38, 0x00, 0x1E, 0xF0, 0xF8, 0xE0, 0x80, 0x07, 
  0xE0, 0x3F, 0x80, 0x03, 0xFC, 0x1F, 0xE0, 0xFF, 0xFC, 0x1F, 0xF8, 0xFF, 
  0xF8, 0xFF, 0xE0, 0x7F, 0x38, 0xE0, 0xF0, 0x1F, 0xC0, 0x1F, 0x38, 0x00, 
  0x38, 0x00, 0x3E, 0xF8, 0xF8, 0xE0, 0xE0, 0x1F, 0xF0, 0x78, 0xC0, 0x07, 
  0x1C, 0x3C, 0xF0, 0xE1, 0x1C, 0x3E, 0x38, 0x00, 0x38, 0x00, 0xF0, 0xF0, 
  0x38, 0xE0, 0x80, 0x03, 0x00, 0x1C, 0x38, 0x78, 0x38, 0x00, 0x3E, 0xF8, 
  0xF8, 0xE1, 0xF0, 0x3F, 0x38, 0x60, 0xC0, 0x07, 0x1C, 0x38, 0x78, 0xC0, 
  0x1C, 0x78, 0x38, 0x00, 0x38, 0x00, 0x78, 0xE0, 0x38, 0xE0, 0x80, 0x03, 
  0x00, 0x1C, 0x38, 0x3C, 0x38, 0x00, 0x7E, 0xFC, 0xF8, 0xE1, 0x78, 0x78, 
  0x1C, 0xEF, 0xE0, 0x0E, 0x1C, 0x38, 0x38, 0x00, 0x1C, 0x70, 0x38, 0x00, 
  0x38, 0x00, 0x38, 0x00, 0x38, 0xE0, 0x80, 0x03, 0x00, 0x1C, 0x38, 0x1E, 
  0x38, 0x00, 0x6E, 0xEC, 0xF8, 0xE1, 0x38, 0x70, 0x9C, 0xCF, 0xE0, 0x0E, 
  0x1C, 0x1C, 0x3C, 0x00, 0x1C, 0xE0, 0x38, 0x00, 0x38, 0x00, 0x3C, 0x00, 
  0x38, 0xE0, 0x80, 0x03, 0x00, 0x1C, 0x38, 0x0F, 0x38, 0x00, 0x6E, 0xEC, 
  0xB8, 0xE3, 0x3C, 0xF0, 0xCC, 0xCC, 0x70, 0x1C, 0xFC, 0x0F, 0x1C, 0x00, 
  0x1C, 0xE0, 0x38, 0x00, 0x38, 0x00, 0x1C, 0x00, 0x38, 0xE0, 0x80, 0x03, 
  0x00, 0x1C, 0x38, 0x07, 0x38, 0x00, 0xCE, 0xE6, 0xB8, 0xE7, 0x1C, 0xE0, 
  0xCC, 0xCC, 0x78, 0x3C, 0xFC, 0x3F, 0x1C, 0x00, 0x1C, 0xE0, 0xF8, 0xFF, 
  0xF8, 0x7F, 0x1C, 0xFE, 0xF8, 0xFF, 0x80, 0x03, 0x00, 0x1C, 0xB8, 0x03, 
  0x38, 0x00, 0xCE, 0xE6, 0x38, 0xE7, 0x1C, 0xE0, 0xCC, 0xCC, 0x38, 0x38, 
  0x1C, 0x78, 0x1C, 0x00, 0x1C, 0xE0, 0xF8, 0xFF, 0xF8, 0x7F, 0x1C, 0xFE, 
  0xF8, 0xFF, 0x80, 0x03, 0x00, 0x1C, 0xF8, 0x07, 0x38, 0x00, 0xCE, 0xE7, 
  0x38, 0xE7, 0x1C, 0xE0, 0xCC, 0xCC, 0xF8, 0x3F, 0x1C, 0xF0, 0x3C, 0x00, 
  0x1C, 0xE0, 0x38, 0x00, 0x38, 0x00, 0x1C, 0xE0, 0x38, 0xE0, 0x80, 0x03, 
  0x00, 0x1C, 0xF8, 0x07, 0x38, 0x00, 0x8E, 0xE3, 0x38, 0xEF, 0x1C, 0xE0, 
  0x9C, 0x7F, 0xFC, 0x7F, 0x1C, 0xE0, 0x38, 0x00, 0x1C, 0x70, 0x38, 0x00, 
  0x38, 0x00, 0x3C, 0xE0, 0x38, 0xE0, 0x80, 0x03, 0x00, 0x1C, 0x78, 0x0F, 
  0x38, 0x00, 0x8E, 0xE3, 0x38, 0xEC, 0x3C, 0xF0, 0x18, 0x7F, 0x1C, 0x70, 
  0x1C, 0xE0, 0x78, 0x00, 0x1C, 0x70, 0x38, 0x00, 0x38, 0x00, 0x38, 0xE0, 
  0x38, 0xE0, 0x80, 0x03, 0x00, 0x1C, 0x38, 0x1E, 0x38, 0x00, 0x8E, 0xE3, 
  0x38, 0xFC, 0x38, 0x70, 0x38, 0x00, 0x1C, 0x70, 0x1C, 0xF0, 0xF0, 0xC0, 
  0x1C, 0x38, 0x38, 0x00, 0x38, 0x00, 0x78, 0xE0, 0x38, 0xE0, 0x80, 0x03, 
  0x00, 0x1C, 0x38, 0x3C, 0x38, 0x00, 0x0E, 0xE1, 0x38, 0xF8, 0x78, 0x78, 
  0xF0, 0x38, 0x0C, 0xE0, 0x1C, 0x78, 0xE0, 0xE1, 0x1C, 0x3E, 0x38, 0x00, 
  0x38, 0x00, 0xF0, 0xF1, 0x38, 0xE0, 0x80, 0x03, 0x70, 0x1E, 0x38, 0x78, 
  0x38, 0x00, 0x0E, 0xE0, 0x38, 0xF8, 0xF0, 0x3F, 0xE0, 0x3F, 0x0C, 0xE0, 
  0xFC, 0x3F, 0xC0, 0xFF, 0xFC, 0x1F, 0xF8, 0xFF, 0x38, 0x00, 0xE0, 0x7F, 
  0x38, 0xE0, 0xF0, 0x1F, 0xF0, 0x0F, 0x38, 0xF0, 0xF8, 0x7F, 0x0E, 0xE0, 
  0x38, 0xF0, 0xE0, 0x1F, 0x80, 0x3F, 0x0C, 0xE0, 0xFC, 0x0F, 0x00, 0x3F, 
  0xFC, 0x07, 0xF8, 0xFF, 0x38, 0x00, 0x80, 0x3F, 0x38, 0xE0, 0xF0, 0x1F, 
  0xF0, 0x07, 0x38, 0xE0, 0xF8, 0x7F, 0x0E, 0xE0, 0x38, 0xF0, 0x80, 0x07, 
  0xF8, 0x0F, 0xC0, 0x0F, 0xFC, 0x1F, 0xE0, 0x3F, 0xFE, 0xFF, 0x1C, 0xE0, 
  0x38, 0xE0, 0x38, 0xE0, 0x38, 0xE0, 0x38, 0xE0, 0xFC, 0xFF, 0xE0, 0x0F, 
  0x60, 0x00, 0xE0, 0x0F, 0x00, 0x03, 0x00, 0x00, 0xF8, 0x1F, 0xE0, 0x1F, 
  0xFC, 0x3F, 0xF8, 0xFF, 0xFE, 0xFF, 0x1C, 0xE0, 0x38, 0xE0, 0x38, 0xE0, 
  0x78, 0xF0, 0x78, 0xF0, 0xFC, 0xFF, 0xE0, 0x0F, 0x60, 0x00, 0xE0, 0x0F, 
  0x80, 0x07, 0x00, 0x00, 0x38, 0x3C, 0xF0, 0x3C, 0x1C, 0x78, 0x3C, 0xF0, 
  0x80, 0x03, 0x1C, 0xE0, 0x38, 0xE0, 0x38, 0xE0, 0xF0, 0x78, 0x70, 0x70, 
  0x00, 0xE0, 0xE0, 0x00, 0xE0, 0x00, 0x00, 0x0E, 0xC0, 0x0F, 0x00, 0x00, 
  0x38, 0x78, 0x78, 0x78, 0x1C, 0xF0, 0x1C, 0xC0, 0x80, 0x03, 0x1C, 0xE0, 
  0x38, 0xE0, 0x38, 0xE7, 0xE0, 0x38, 0xE0, 0x38, 0x00, 0xF8, 0xE0, 0x00, 
  0xC0, 0x00, 0x00, 0x0E, 0xC0, 0x0C, 0x00, 0x00, 0x38, 0x70, 0x38, 0x70, 
  0x1C, 0xE0, 0x1C, 0x00, 0x80, 0x03, 0x1C, 0xE0, 0x78, 0xF0, 0x38, 0xE7, 
  0xC0, 0x1D, 0xE0, 0x38, 0x00, 0x7C, 0xE0, 0x00, 0xC0, 0x00, 0x00, 0x0E, 
  0x60, 0x18, 0x00, 0x00, 0x38, 0x70, 0x1C, 0xE0, 0x1C, 0xE0, 0x1C, 0x00, 
  0x80, 0x03, 0x1C, 0xE0, 0x70, 0x70, 0x38, 0xE7, 0x80, 0x0F, 0xC0, 0x1D, 
  0x00, 0x1E, 0xE0, 0x00, 0xC0, 0x01, 0x00, 0x0E, 0x70, 0x38, 0x00, 0x00, 
  0x38, 0x70, 0x1C, 0xE0, 0x1C, 0x70, 0x3C, 0x00, 0x80, 0x03, 0x1C, 0xE0, 
  0x70, 0x70, 0x38, 0xE7, 0x80, 0x0F, 0xC0, 0x1D, 0x00, 0x0F, 0xE0, 0x00, 
  0x80, 0x01, 0x00, 0x0E, 0x38, 0x70, 0x00, 0x00, 0x38, 0x78, 0x1C, 0xE0, 
  0x1C, 0x38, 0xF8, 0x0F, 0x80, 0x03, 0x1C, 0xE0, 0xE0, 0x38, 0xB8, 0xEF, 
  0x00, 0x07, 0x80, 0x0F, 0x80, 0x07, 0xE0, 0x00, 0x80, 0x01, 0x00, 0x0E, 
  0x00, 0x00, 0x00, 0x00, 0x38, 0x3C, 0x9C, 0xE3, 0xFC, 0x1F, 0xF0, 0x7F, 
  0x80, 0x03, 0x1C, 0xE0, 0xE0, 0x38, 0xB8, 0xEF, 0x80, 0x0F, 0x00, 0x07, 
  0xC0, 0x03, 0xE0, 0x00, 0x00, 0x03, 0x00, 0x0E, 0x00, 0x00, 0x00, 0x00, 
  0xF8, 0x1F, 0x9C, 0xE7, 0xFC, 0x0F, 0x80, 0xFF, 0x80, 0x03, 0x1C, 0xE0, 
  0xE0, 0x38, 0xB8, 0xED, 0x80, 0x0D, 0x00, 0x07, 0xE0, 0x01, 0xE0, 0x00, 
  0x00, 0x03, 0x00, 0x0E, 0x00, 0x00, 0x00, 0x00, 0xF8, 0x0F, 0x9C, 0xEF, 
  0x1C, 0x1E, 0x00, 0xF0, 0x80, 0x03, 0x1C, 0xE0, 0xC0, 0x1D, 0xB8, 0xED, 
  0xC0, 0x1D, 0x00, 0x07, 0xF0, 0x00, 0xE0, 0x00, 0x00, 0x07, 0x00, 0x0E, 
  0x00, 0x00, 0x00, 0x00, 0x38, 0x00, 0x38, 0xFF, 0x1C, 0x1C, 0x00, 0xE0, 
  0x80, 0x03, 0x38, 0x70, 0xC0, 0x1D, 0xB8, 0xFD, 0xE0, 0x38, 0x00, 0x07, 
  0x78, 0x00, 0xE0, 0x00, 0x00, 0x06, 0x00, 0x0E, 0x00, 0x00, 0x00, 0x00, 
  0x38, 0x00, 0x78, 0x7E, 0x1C, 0x38, 0x0C, 0xE0, 0x80, 0x03, 0x38, 0x70, 
  0xC0, 0x1D, 0xF0, 0x7D, 0xE0, 0x38, 0x00, 0x07, 0x3C, 0x00, 0xE0, 0x00, 
  0x00, 0x06, 0x00, 0x0E, 0x00, 0x00, 0x00, 0x00, 0x38, 0x00, 0xF0, 0x7C, 
  0x1C, 0x78, 0x3C, 0xF0, 0x80, 0x03, 0xF0, 0x3C, 0x80, 0x0F, 0xF0, 0x78, 
  0x70, 0x70, 0x00, 0x07, 0x3C, 0x00, 0xE0, 0x00, 0x00, 0x0E, 0x00, 0x0E, 
  0x00, 0x00, 0x00, 0x00, 0x38, 0x00, 0xE0, 0xFF, 0x1C, 0xF0, 0xFC, 0x7F, 
  0x80, 0x03, 0xE0, 0x1F, 0x80, 0x0F, 0xF0, 0x78, 0x78, 0xF0, 0x00, 0x07, 
  0xFC, 0xFF, 0xE0, 0x0F, 0x00, 0x0C, 0xE0, 0x0F, 0x00, 0x00, 0xFC, 0xFF, 
  0x38, 0x00, 0x80, 0xEF, 0x1C, 0xE0, 0xF0, 0x1F, 0x80, 0x03, 0xC0, 0x0F, 
  0x80, 0x0F, 0xF0, 0x78, 0x38, 0xE0, 0x00, 0x07, 0xFC, 0xFF, 0xE0, 0x0F, 
  0x00, 0x0C, 0xE0, 0x0F, 0x00, 0x00, 0xFC, 0xFF, 0x00, 0x07, 0x00, 0x00, 
  0x38, 0x00, 0x00, 0x00, 0x00, 0x70, 0x00, 0x00, 0x00, 0x3E, 0x00, 0x00, 
  0x00, 0x00, 0x00, 0x00, 0x00, 0x1C, 0x38, 0x00, 0x80, 0x03, 0x00, 0x00, 
  0x00, 0x00, 0x00, 0x00, 0x00, 0x07, 0x00, 0x00, 0x38, 0x00, 0x00, 0x00, 
  0x00, 0x70, 0x00, 0x00, 0x80, 0x3F, 0x00, 0x00, 0x38, 0x00, 0x80, 0x03, 
  0x00, 0x1C, 0x38, 0x00, 0x80, 0x03, 0x00, 0x00, 0x00, 0x00, 0x00, 0x00, 
  0x00, 0x07, 0xE0, 0x1F, 0x38, 0x00, 0x00, 0x3F, 0x00, 0x70, 0x80, 0x0F, 
  0x80, 0x03, 0x80, 0x77, 0x38, 0x00, 0x80, 0x03, 0x00, 0x1C, 0x38, 0x00, 
  0x80, 0x03, 0xEE, 0x38, 0x38, 0x1F, 0xC0, 0x1F, 0x00, 0x0E, 0xF0, 0x3F, 
  0x38, 0x00, 0xC0, 0x7F, 0x00, 0x70, 0xE0, 0x3F, 0xC0, 0x01, 0xE0, 0x7F, 
  0x38, 0x00, 0x00, 0x00, 0x00, 0x00, 0x38, 0x78, 0x80, 0x03, 0xFE, 0x7D, 
  0xB8, 0x3F, 0xE0, 0x3F, 0x00, 0x0C, 0x70, 0x78, 0x38, 0x00, 0xE0, 0x71, 
  0x00, 0x70, 0xF0, 0x78, 0xC0, 0x01, 0xF0, 0x7C, 0x38, 0x00, 0x00, 0x00, 
  0x00, 0x00, 0x38, 0x3C, 0x80, 0x03, 0xFE, 0xFF, 0xF8, 0x79, 0xF0, 0x78, 
  0x00, 0x00, 0x00, 0xE0, 0xB8, 0x0F, 0x70, 0x60, 0x80, 0x77, 0x70, 0x70, 
  0xC0, 0x01, 0x78, 0x78, 0xB8, 0x1F, 0x80, 0x03, 0x80, 0x1F, 0x38, 0x1E, 
  0x80, 0x03, 0x9E, 0xE7, 0xF8, 0x70, 0x70, 0x70, 0x00, 0x00, 0x00, 0xE0, 
  0xF8, 0x1F, 0x70, 0x00, 0xE0, 0x7F, 0x38, 0xE0, 0xF0, 0x1F, 0x38, 0x70, 
  0xF8, 0x3F, 0x80, 0x03, 0x80, 0x1F, 0x38, 0x0F, 0x80, 0x03, 0x8E, 0xE3, 
  0x38, 0x70, 0x78, 0xF0, 0x00, 0x00, 0x00, 0xE0, 0xF8, 0x3C, 0x38, 0x00, 
  0xF0, 0x7C, 0x38, 0xE0, 0xF0, 0x1F, 0x38, 0x70, 0xF8, 0x38, 0x80, 0x03, 
  0x00, 0x1C, 0xB8, 0x07, 0x80, 0x03, 0x8E, 0xE3, 0x38, 0x70, 0x38, 0xE0, 
  0x00, 0x00, 0xC0, 0xFF, 0x38, 0x78, 0x38, 0x00, 0x78, 0x70, 0xF8, 0xFF, 
  0xC0, 0x01, 0x38, 0x78, 0x78, 0x70, 0x80, 0x03, 0x00, 0x1C, 0xF8, 0x03, 
  0x80, 0x03, 0x8E, 0xE3, 0x38, 0x70, 0x38, 0xE0, 0x00, 0x00, 0xF0, 0xFF, 
  0x38, 0x70, 0x38, 0x00, 0x38, 0x70, 0xF8, 0xFF, 0xC0, 0x01, 0x78, 0x7C, 
  0x38, 0x70, 0x80, 0x03, 0x00, 0x1C, 0xF8, 0x01, 0x80, 0x03, 0x8E, 0xE3, 
  0x38, 0x70, 0x38, 0xE0, 0x00, 0x00, 0xF8, 0xE1, 0x38, 0x70, 0x38, 0x00, 
  0x38, 0x70, 0x38, 0x00, 0xC0, 0x01, 0xF0, 0x77, 0x38, 0x70, 0x80, 0x03, 
  0x00, 0x1C, 0xF8, 0x07, 0x80, 0x03, 0x8E, 0xE3, 0x38, 0x70, 0x38, 0xE0, 
  0x00, 0x00, 0x78, 0xE0, 0x38, 0x70, 0x70, 0x00, 0x38, 0x70, 0x38, 0x00, 
  0xC0, 0x01, 0xC0, 0x73, 0x38, 0x70, 0x80, 0x03, 0x00, 0x1C, 0x38, 0x0F, 
  0x80, 0x03, 0x8E, 0xE3, 0x38, 0x70, 0x78, 0xF0, 0x00, 0x00, 0x38, 0xE0, 
  0x38, 0x70, 0x70, 0x60, 0x38, 0x70, 0x78, 0xE0, 0xC0, 0x01, 0x00, 0x38, 
  0x38, 0x70, 0x80, 0x03, 0x00, 0x1C, 0x38, 0x1E, 0x80, 0x03, 0x8E, 0xE3, 
  0x38, 0x70, 0x70, 0x70, 0x00, 0x00, 0x78, 0xF8, 0xF8, 0x38, 0xE0, 0x71, 
  0x78, 0x7C, 0xF0, 0xF0, 0xC0, 0x01, 0x38, 0x3C, 0x38, 0x70, 0x80, 0x03, 
  0x60, 0x1E, 0x38, 0x3C, 0x80, 0x03, 0x8E, 0xE3, 0x38, 0x70, 0xF0, 0x78, 
  0x00, 0x00, 0xF0, 0xFF, 0xF8, 0x1F, 0xC0, 0x7F, 0xF0, 0x7F, 0xE0, 0xFF, 
  0xC0, 0x01, 0xF8, 0x1F, 0x38, 0x70, 0x80, 0x03, 0xE0, 0x0F, 0x38, 0x78, 
  0x80, 0x03, 0x8E, 0xE3, 0x38, 0x70, 0xE0, 0x3F, 0x00, 0x00, 0xE0, 0xE7, 
  0xB8, 0x0F, 0x00, 0x3F, 0xC0, 0x73, 0x80, 0x3F, 0xC0, 0x01, 0xF8, 0x0F, 
  0x38, 0x70, 0x80, 0x03, 0xE0, 0x07, 0x38, 0xF0, 0x80, 0x03, 0x8E, 0xE3, 
  0x38, 0x70, 0xC0, 0x1F, 0x00, 0x00, 0x00, 0x00, 0x00, 0x00, 0x00, 0x00, 
  0xC0, 0x01, 0x00, 0x00, 0x00, 0x00, 0x00, 0x00, 0x00, 0x00, 0x00, 0x00, 
  0x00, 0x00, 0x00, 0x3E, 0x80, 0x03, 0xF8, 0x00, 0xE0, 0xC1, 0x00, 0x00, 
  0x00, 0x00, 0x00, 0x00, 0x00, 0x00, 0x00, 0x00, 0xC0, 0x01, 0x00, 0x00, 
  0x00, 0x00, 0x00, 0x00, 0x00, 0x00, 0x00, 0x00, 0x00, 0x00, 0x80, 0x3F, 
  0x80, 0x03, 0xF8, 0x01, 0xF0, 0xC3, 0x00, 0x00, 0xB8, 0x1F, 0xC0, 0xEF, 
  0xE0, 0x3E, 0xC0, 0x1F, 0xC0, 0x01, 0x38, 0x38, 0x38, 0xE0, 0x38, 0xE0, 
  0x38, 0xE0, 0x38, 0xE0, 0xF8, 0x7F, 0x80, 0x03, 0x80, 0x03, 0x80, 0x03, 
  0x30, 0x67, 0x00, 0x00, 0xF8, 0x3F, 0xE0, 0xFF, 0xE0, 0x3F, 0xF0, 0x7F, 
  0xC0, 0x01, 0x38, 0x38, 0x38, 0xE0, 0x38, 0xE0, 0x78, 0xF0, 0x78, 0xF0, 
  0xF8, 0x7F, 0xC0, 0x01, 0x80, 0x03, 0x00, 0x07, 0x18, 0x7E, 0x00, 0x00, 
  0xF8, 0x78, 0x70, 0xF8, 0xE0, 0x03, 0x78, 0x70, 0xF0, 0x1F, 0x38, 0x38, 
  0x38, 0xE0, 0x38, 0xE2, 0x70, 0x70, 0x70, 0x70, 0x00, 0x70, 0xC0, 0x01, 
  0x80, 0x03, 0x00, 0x07, 0x18, 0x3C, 0x00, 0x00, 0x38, 0x70, 0x38, 0xE0, 
  0xE0, 0x01, 0x38, 0x60, 0xF0, 0x1F, 0x38, 0x38, 0x70, 0x70, 0x38, 0xE7, 
  0xE0, 0x38, 0xE0, 0x38, 0x00, 0x78, 0xC0, 0x01, 0x80, 0x03, 0x00, 0x07, 
  0x00, 0x00, 0x00, 0x00, 0x38, 0x70, 0x38, 0xE0, 0xE0, 0x00, 0x38, 0x00, 
  0xC0, 0x01, 0x38, 0x38, 0x70, 0x70, 0x38, 0xE7, 0xE0, 0x3D, 0xE0, 0x38, 
  0x00, 0x3C, 0xF0, 0x00, 0x80, 0x03, 0x00, 0x1E, 0x00, 0x00, 0x00, 0x00, 
  0x38, 0x70, 0x38, 0xE0, 0xE0, 0x00, 0xF8, 0x00, 0xC0, 0x01, 0x38, 0x38, 
  0xE0, 0x38, 0x38, 0xE7, 0xC0, 0x1F, 0xC0, 0x1D, 0x00, 0x1E, 0x38, 0x00, 
  0x80, 0x03, 0x00, 0x38, 0x00, 0x00, 0x00, 0x00, 0xF8, 0x38, 0xF8, 0xF8, 
  0xE0, 0x00, 0xF0, 0x0F, 0xC0, 0x01, 0x38, 0x38, 0xE0, 0x38, 0x38, 0xE7, 
  0x80, 0x0F, 0xC0, 0x1D, 0x00, 0x0F, 0x38, 0x00, 0x80, 0x03, 0x00, 0x38, 
  0x00, 0x00, 0x00, 0x00, 0xF8, 0x1F, 0xF0, 0xFF, 0xE0, 0x00, 0xC0, 0x3F, 
  0xC0, 0x01, 0x38, 0x38, 0xC0, 0x18, 0xB8, 0xEF, 0x80, 0x0F, 0x80, 0x0F, 
  0x80, 0x07, 0xF0, 0x00, 0x80, 0x03, 0x00, 0x1E, 0x00, 0x00, 0x00, 0x00, 
  0xB8, 0x0F, 0xC0, 0xE7, 0xE0, 0x00, 0x00, 0x7C, 0xC0, 0x01, 0x38, 0x38, 
  0xC0, 0x1D, 0xB0, 0x6D, 0xC0, 0x1D, 0x80, 0x0F, 0xC0, 0x03, 0xC0, 0x01, 
  0x80, 0x03, 0x00, 0x07, 0x00, 0x00, 0x00, 0x00, 0x38, 0x00, 0x00, 0xE0, 
  0xE0, 0x00, 0x00, 0x70, 0xC0, 0x01, 0x38, 0x38, 0xC0, 0x1D, 0xB0, 0x6D, 
  0xE0, 0x38, 0x80, 0x07, 0xE0, 0x01, 0xC0, 0x01, 0x80, 0x03, 0x00, 0x07, 
  0x00, 0x00, 0x00, 0x00, 0x38, 0x00, 0x00, 0xE0, 0xE0, 0x00, 0x18, 0x70, 
  0xC0, 0x01, 0x78, 0x3C, 0x80, 0x0D, 0xF0, 0x7D, 0xE0, 0x38, 0xC0, 0x03, 
  0xF0, 0x00, 0xC0, 0x01, 0x80, 0x03, 0x00, 0x07, 0x00, 0x00, 0x38, 0xE7, 
  0x38, 0x00, 0x00, 0xE0, 0xE0, 0x00, 0x38, 0x38, 0xC0, 0x1B, 0x78, 0x3E, 
  0x80, 0x0F, 0xF0, 0x78, 0x70, 0x70, 0xC0, 0x01, 0x78, 0x00, 0x80, 0x03, 
  0x80, 0x03, 0x80, 0x03, 0x00, 0x00, 0x38, 0xE7, 0x38, 0x00, 0x00, 0xE0, 
  0xE0, 0x00, 0xF8, 0x1F, 0xC0, 0x1F, 0xF0, 0x3F, 0x00, 0x07, 0xE0, 0x38, 
  0x78, 0xF0, 0xF0, 0x01, 0xF8, 0x7F, 0x00, 0x3F, 0x80, 0x03, 0xF8, 0x03, 
  0x00, 0x00, 0x38, 0xE7, 0x38, 0x00, 0x00, 0xE0, 0xE0, 0x00, 0xE0, 0x0F, 
  0x80, 0x1F, 0xE0, 0x3B, 0x00, 0x07, 0xE0, 0x38, 0x38, 0xE0, 0xF0, 0x00, 
  0xF8, 0x7F, 0x00, 0x3E, 0x80, 0x03, 0xF8, 0x00, 0x00, 0x00, 0x38, 0xE7, 
  };
