#define normal_icons_width 24
#define normal_icons_height 420
static char normal_icons_bits[] = {
  0x00, 0xF0, 0x00, 0x00, 0x08, 0x01, 0x00, 0x04, 0x02, 0x00, 0x32, 0x04, 
  0x00, 0xF1, 0x08, 0x00, 0xF1, 0x09, 0x00, 0xF1, 0x09, 0x00, 0xF1, 0x08, 
  0x00, 0x32, 0x04, 0x00, 0x04, 0x02, 0x00, 0x08, 0x01, 0x00, 0xF0, 0x00, 
  0x00, 0x00, 0x00, 0x80, 0x01, 0x00, 0x40, 0xFE, 0x01, 0x20, 0x00, 0x01, 
  0x20, 0x00, 0x01, 0x20, 0xFF, 0x0F, 0x20, 0x01, 0x08, 0xA0, 0x00, 0x04, 
  0xA0, 0x00, 0x04, 0x60, 0x00, 0x02, 0x20, 0x00, 0x01, 0xE0, 0xFF, 0x00, 
  0x00, 0x00, 0x00, 0x80, 0x01, 0x00, 0x40, 0xFE, 0x01, 0x20, 0x00, 0x01, 
  0x20, 0x00, 0x01, 0x20, 0xFF, 0x0F, 0x20, 0x01, 0x08, 0xA0, 0x88, 0x04, 
  0xA0, 0x44, 0x04, 0x60, 0x22, 0x02, 0x20, 0x00, 0x01, 0xE0, 0xFF, 0x00, 
  0x00, 0x00, 0x00, 0xF0, 0xFF, 0x03, 0x10, 0x00, 0x02, 0x10, 0x00, 0x3E, 
  0x50, 0x6D, 0x22, 0x50, 0xA5, 0x2A, 0x50, 0x6D, 0x22, 0x50, 0xA9, 0x2A, 
  0xD0, 0x6D, 0x22, 0x10, 0x00, 0x3E, 0x10, 0x00, 0x02, 0xF0, 0xFF, 0x03, 
  0x00, 0x00, 0x00, 0xE0, 0xFF, 0x03, 0x20, 0x00, 0x04, 0x20, 0x80, 0x0F, 
  0xA0, 0x0D, 0x08, 0xA0, 0x14, 0x0F, 0xA0, 0x15, 0x08, 0x20, 0x15, 0x0F, 
  0xA0, 0x0D, 0x08, 0x20, 0x00, 0x0F, 0x20, 0x00, 0x08, 0xE0, 0xFF, 0x0F, 
  0x00, 0x00, 0x00, 0x00, 0x40, 0x08, 0x80, 0x67, 0x10, 0x80, 0x54, 0x12, 
  0x80, 0x4C, 0x14, 0x80, 0x44, 0x14, 0x80, 0x44, 0x14, 0x80, 0x4C, 0x14, 
  0x80, 0x54, 0x12, 0x80, 0x67, 0x10, 0x00, 0x40, 0x08, 0x00, 0x00, 0x00, 
  0x00, 0x00, 0x00, 0x00, 0xF0, 0x00, 0x00, 0x0A, 0x01, 0x00, 0x67, 0x0E, 
  0x00, 0x91, 0x08, 0x00, 0x09, 0x09, 0x00, 0x09, 0x09, 0x00, 0x91, 0x08, 
  0x00, 0x61, 0x08, 0x00, 0x01, 0x08, 0x00, 0xFF, 0x0F, 0x00, 0x00, 0x00, 
  0x00, 0x00, 0x00, 0x00, 0x00, 0x03, 0x00, 0x80, 0x01, 0x00, 0x80, 0x08, 
  0x00, 0x80, 0x0D, 0x00, 0xC0, 0x07, 0x00, 0xE0, 0x00, 0x00, 0x7C, 0x00, 
  0x00, 0x36, 0x00, 0x00, 0x22, 0x00, 0x00, 0x30, 0x00, 0x00, 0x18, 0x00, 
  0x00, 0x20, 0x00, 0x00, 0xA8, 0x00, 0x00, 0xAC, 0x01, 0x00, 0x26, 0x03, 
  0x00, 0x23, 0x06, 0x00, 0x21, 0x04, 0x00, 0x01, 0x04, 0x00, 0x01, 0x04, 
  0x00, 0x03, 0x06, 0x00, 0x06, 0x03, 0x00, 0x8C, 0x01, 0x00, 0xF8, 0x00, 
  0x00, 0x3C, 0x00, 0x00, 0x42, 0x00, 0x00, 0x8D, 0x00, 0x80, 0x0C, 0x01, 
  0x80, 0x00, 0x01, 0x80, 0x00, 0x01, 0x80, 0x00, 0x01, 0x00, 0x81, 0x00, 
  0x00, 0xC2, 0x03, 0x00, 0xBC, 0x07, 0x00, 0x80, 0x0F, 0x00, 0x00, 0x0F, 
  0x00, 0x00, 0x00, 0x00, 0x00, 0x00, 0x00, 0xFE, 0x01, 0x00, 0x01, 0x02, 
  0x00, 0xFC, 0x00, 0x00, 0x02, 0x01, 0x00, 0x78, 0x00, 0x00, 0x84, 0x00, 
  0x00, 0x30, 0x00, 0x00, 0x30, 0x00, 0x00, 0x00, 0x00, 0x00, 0x00, 0x00, 
  0x00, 0x00, 0x00, 0x00, 0x00, 0x00, 0x00, 0x00, 0x1C, 0x80, 0x03, 0x17, 
  0x80, 0x0E, 0x1D, 0x80, 0x0B, 0x01, 0x00, 0xF8, 0x01, 0x00, 0x00, 0x01, 
  0x00, 0x1C, 0x01, 0x00, 0xF4, 0x01, 0x00, 0x1C, 0x00, 0x00, 0x00, 0x00, 
  0x00, 0x00, 0x00, 0x00, 0xF8, 0x00, 0x00, 0x8C, 0x01, 0x00, 0x26, 0x03, 
  0x00, 0x23, 0x06, 0x00, 0x21, 0x04, 0x00, 0xFD, 0x05, 0x00, 0x21, 0x04, 
  0x00, 0x23, 0x06, 0x00, 0x26, 0x03, 0x00, 0x8C, 0x01, 0x00, 0xF8, 0x00, 
  0x80, 0x8B, 0x01, 0x00, 0xEC, 0x01, 0x00, 0x0E, 0x07, 0x40, 0x00, 0x00, 
  0x50, 0xF1, 0x07, 0xE0, 0x10, 0x04, 0xF0, 0x51, 0x05, 0xE0, 0x50, 0x05, 
  0x50, 0x51, 0x05, 0x40, 0x50, 0x05, 0x00, 0x10, 0x04, 0x00, 0xE0, 0x03, 
  0x00, 0x00, 0x00, 0x00, 0x00, 0x00, 0x00, 0xF8, 0x00, 0x00, 0x04, 0x01, 
  0x00, 0x72, 0x02, 0x00, 0xE9, 0x04, 0x00, 0xF9, 0x04, 0x00, 0x72, 0x02, 
  0x00, 0x04, 0x01, 0x00, 0xF8, 0x00, 0x00, 0x00, 0x00, 0x00, 0x00, 0x00, 
  0x00, 0x00, 0x00, 0x00, 0x00, 0x00, 0x80, 0x03, 0x00, 0x40, 0x04, 0x00, 
  0x40, 0x04, 0x00, 0x40, 0xF9, 0x0F, 0x40, 0x01, 0x10, 0x40, 0x5C, 0x0B, 
  0x40, 0xA4, 0x04, 0x80, 0x03, 0x00, 0x00, 0x00, 0x00, 0x00, 0x00, 0x00, 
  0x00, 0x20, 0x00, 0x00, 0x7E, 0x00, 0x00, 0x20, 0x00, 0x00, 0x8E, 0x03, 
  0x00, 0x8B, 0x06, 0xC0, 0x89, 0x1C, 0xC0, 0x89, 0x1C, 0x00, 0x8B, 0x06, 
  0x00, 0x8E, 0x03, 0x00, 0x20, 0x00, 0x00, 0xF0, 0x03, 0x00, 0x20, 0x00, 
  0x00, 0x24, 0x01, 0x00, 0xA8, 0x00, 0x00, 0x20, 0x00, 0x00, 0x8E, 0x03, 
  0x00, 0x8B, 0x06, 0xC0, 0x89, 0x1C, 0xC0, 0x89, 0x1C, 0x00, 0x8B, 0x06, 
  0x00, 0x8E, 0x03, 0x00, 0x20, 0x00, 0x00, 0xA8, 0x00, 0x00, 0x24, 0x01, 
  0x00, 0x00, 0x00, 0x00, 0x00, 0x00, 0x00, 0x00, 0x00, 0x00, 0x20, 0x00, 
  0x00, 0x70, 0x00, 0x00, 0xF8, 0x00, 0x00, 0xFC, 0x01, 0x00, 0x70, 0x00, 
  0x00, 0x70, 0x00, 0x00, 0x70, 0x00, 0x00, 0x70, 0x00, 0x00, 0x00, 0x00, 
  0x00, 0x00, 0x00, 0x00, 0x00, 0x00, 0x00, 0x00, 0x00, 0x00, 0x70, 0x00, 
  0x00, 0x70, 0x00, 0x00, 0x70, 0x00, 0x00, 0x70, 0x00, 0x00, 0xFC, 0x01, 
  0x00, 0xF8, 0x00, 0x00, 0x70, 0x00, 0x00, 0x20, 0x00, 0x00, 0x00, 0x00, 
  0x00, 0x00, 0x00, 0x00, 0xFF, 0x07, 0x00, 0xFF, 0x07, 0x00, 0x02, 0x02, 
  0x00, 0x04, 0x01, 0x00, 0x88, 0x00, 0x00, 0x88, 0x00, 0x00, 0x88, 0x00, 
  0x00, 0x04, 0x01, 0x00, 0x02, 0x02, 0x00, 0xFF, 0x07, 0x00, 0xFF, 0x07, 
  0x00, 0x00, 0x00, 0x00, 0x03, 0x06, 0x00, 0x07, 0x07, 0x00, 0x8B, 0x06, 
  0x00, 0x73, 0x06, 0x00, 0x03, 0x06, 0x00, 0x03, 0x06, 0x00, 0x03, 0x06, 
  0x00, 0x73, 0x06, 0x00, 0x8B, 0x06, 0x00, 0x07, 0x07, 0x00, 0x03, 0x06, 
  0x00, 0x20, 0x00, 0x00, 0x60, 0x00, 0x00, 0xA4, 0x00, 0x00, 0x28, 0x01, 
  0x00, 0xB0, 0x00, 0x00, 0x60, 0x00, 0x00, 0xB0, 0x00, 0x00, 0x28, 0x01, 
  0x00, 0xA4, 0x00, 0x00, 0x60, 0x00, 0x00, 0x20, 0x00, 0x00, 0x00, 0x00, 
  0x00, 0xFC, 0x00, 0x00, 0x86, 0x01, 0x00, 0x33, 0x03, 0x80, 0x31, 0x06, 
  0x80, 0x00, 0x04, 0x80, 0x30, 0x04, 0x80, 0x30, 0x04, 0x80, 0x30, 0x04, 
  0x80, 0x31, 0x06, 0x00, 0x33, 0x03, 0x00, 0x86, 0x01, 0x00, 0xFC, 0x00, 
  0x00, 0x00, 0x00, 0x00, 0xFF, 0x00, 0x00, 0x01, 0x01, 0x00, 0x01, 0x03, 
  0x00, 0x01, 0x04, 0x00, 0xDD, 0x04, 0x00, 0x55, 0x05, 0x00, 0xDD, 0x04, 
  0x00, 0x55, 0x05, 0x00, 0xD5, 0x04, 0x00, 0x01, 0x04, 0x00, 0xFF, 0x07, 
  0x00, 0x00, 0x00, 0x00, 0xFF, 0x00, 0x00, 0x01, 0x01, 0x00, 0x01, 0x03, 
  0x00, 0x01, 0x04, 0x00, 0xDD, 0x05, 0x00, 0x55, 0x05, 0x00, 0x5D, 0x04, 
  0x00, 0x45, 0x05, 0x00, 0xC5, 0x05, 0x00, 0x01, 0x04, 0x00, 0xFF, 0x07, 
  0x00, 0x00, 0x00, 0x00, 0xFF, 0x00, 0x00, 0x01, 0x01, 0x00, 0x01, 0x03, 
  0x00, 0x01, 0x04, 0x00, 0xD9, 0x04, 0x00, 0xFD, 0x05, 0x00, 0x05, 0x05, 
  0x00, 0x05, 0x05, 0x00, 0xFD, 0x05, 0x00, 0x01, 0x04, 0x00, 0xFF, 0x07, 
  0x00, 0x00, 0x00, 0x00, 0xFF, 0x00, 0x00, 0x01, 0x01, 0x00, 0x39, 0x03, 
  0x00, 0x6D, 0x04, 0x00, 0x61, 0x04, 0x00, 0x39, 0x04, 0x00, 0x19, 0x04, 
  0x00, 0x01, 0x04, 0x00, 0x19, 0x04, 0x00, 0x01, 0x04, 0x00, 0xFF, 0x07, 
  0x00, 0x00, 0x00, 0x00, 0xFF, 0x00, 0x00, 0x01, 0x01, 0x00, 0x31, 0x03, 
  0x00, 0x01, 0x04, 0x00, 0x39, 0x04, 0x00, 0x31, 0x04, 0x00, 0x31, 0x04, 
  0x00, 0x31, 0x04, 0x00, 0x79, 0x04, 0x00, 0x01, 0x04, 0x00, 0xFF, 0x07, 
  0x80, 0xFF, 0x03, 0x80, 0x54, 0x05, 0x80, 0x6C, 0x09, 0x80, 0x74, 0x09, 
  0x80, 0xFC, 0x09, 0x80, 0x00, 0x08, 0x80, 0xFE, 0x0B, 0x80, 0x02, 0x0A, 
  0x80, 0x52, 0x0A, 0x80, 0xAA, 0x0A, 0x80, 0x02, 0x0A, 0x80, 0xFF, 0x0F, 
  0x00, 0x00, 0x00, 0x00, 0x00, 0x00, 0x00, 0x00, 0x00, 0x00, 0xFC, 0x01, 
  0x00, 0x26, 0x03, 0xC0, 0x23, 0x1E, 0xC0, 0x23, 0x1E, 0x00, 0x26, 0x03, 
  0x00, 0xFC, 0x01, 0x00, 0x00, 0x00, 0x00, 0x00, 0x00, 0x00, 0x00, 0x00, 
  0xC0, 0xFF, 0x07, 0x20, 0x00, 0x08, 0x20, 0xFF, 0x09, 0x20, 0x01, 0x09, 
  0x20, 0xFF, 0x09, 0x60, 0x01, 0x0D, 0x60, 0xF1, 0x0D, 0x20, 0x11, 0x09, 
  0x20, 0x11, 0x09, 0x20, 0xFF, 0x08, 0x20, 0x00, 0x08, 0xC0, 0xFF, 0x07, 
  0xC0, 0xFF, 0x07, 0x20, 0x00, 0x08, 0x20, 0x40, 0x0F, 0x20, 0x60, 0x08, 
  0x20, 0x30, 0x0F, 0x20, 0x10, 0x08, 0x20, 0x17, 0x0F, 0xA0, 0x0D, 0x08, 
  0xE0, 0x00, 0x0D, 0x60, 0x00, 0x0D, 0x20, 0x00, 0x08, 0xC0, 0xFF, 0x07, 
  0x00, 0x00, 0x00, 0x00, 0xC0, 0x03, 0x00, 0x80, 0x03, 0x00, 0xC3, 0x03, 
  0x80, 0xEC, 0x02, 0x40, 0x70, 0x00, 0x40, 0xFE, 0x03, 0x40, 0x01, 0x01, 
  0xC0, 0x80, 0x00, 0x40, 0x40, 0x00, 0xC0, 0x3F, 0x00, 0x00, 0x00, 0x00, 
  0x00, 0x7F, 0x00, 0x00, 0x41, 0x00, 0x00, 0x41, 0x00, 0x80, 0xC1, 0x00, 
  0x80, 0xC1, 0x00, 0x80, 0xFF, 0x00, 0x80, 0x8A, 0x00, 0x80, 0x9C, 0x00, 
  0x80, 0x88, 0x00, 0x80, 0x80, 0x00, 0x00, 0x7F, 0x00, 0x00, 0x7F, 0x00, 
  };
