#define arrow_icons_width 8
#define arrow_icons_height 36
static char arrow_icons_bits[] = {
  0x00, 0x00, 0x08, 0x2A, 0x1C, 0x3E, 0x1C, 0x2A, 0x08, 0x00, 0x00, 0x00, 
  0x00, 0x00, 0x40, 0x60, 0x70, 0x78, 0x7C, 0x78, 0x70, 0x60, 0x40, 0x00, 
  0x00, 0x00, 0x04, 0x0C, 0x1C, 0x3C, 0x7C, 0x3C, 0x1C, 0x0C, 0x04, 0x00, 
  };
