#define PCApp_width 24
#define PCApp_height 12
static char PCApp_bits[] = {
  0xC0, 0xFF, 0x07, 0x20, 0x00, 0x08, 0x20, 0xFF, 0x09, 0x20, 0x01, 0x09, 
  0x20, 0x01, 0x09, 0x20, 0x01, 0x09, 0x20, 0xFE, 0x08, 0x20, 0x55, 0x09, 
  0xA0, 0xAA, 0x0A, 0xA0, 0xFF, 0x0B, 0x20, 0x00, 0x08, 0xC0, 0xFF, 0x07, 
  };
